<mxfile host="65bd71144e">
    <diagram name="Page-1" id="eBNu9JGWcnKCjuETQjlY">
        <mxGraphModel dx="1377" dy="649" grid="1" gridSize="10" guides="1" tooltips="1" connect="1" arrows="1" fold="1" page="1" pageScale="1" pageWidth="827" pageHeight="1169" background="#ffffff" math="0" shadow="0">
            <root>
                <mxCell id="0"/>
                <mxCell id="1" parent="0"/>
                <mxCell id="9LKrxXZM_Z7M-zY_0OCU-20" value="" style="shape=image;aspect=fixed;image=data:image/png,iVBORw0KGgoAAAANSUhEUgAAAzIAAADkCAYAAABDuhGCAAAAAXNSR0IArs4c6QAAAARnQU1BAACxjwv8YQUAAAAJcEhZcwAADsMAAA7DAcdvqGQAAFOcSURBVHhe7b1fjBzXfe/5G1miRAOJhcAIbCCxkBVlXk+3pglzd4k8Ki+RQU+mvboe7bYy4yvzIY/JUrnTyaUWXAIikhlFNPSQPJnLFdtsmLPhqscjxnoJDAT5A16AudPtnrEVUrlAnpIACRzEXlqWbG79qurb/avTp7qrZ7pnuqu/n8FvqurUqb99/vy+dc6pmnsYIGRs/OxnPwvtpz/9qeitVpubm+uYriNkmtB0i2ID6Vl55JFHOuka8xZ3mRAyHlDXwNwwF18YIXkEdZNOffUU8gLrq+mBQmbM6O1VUyEDUaMZBJmEt59ME0i7Nt3aeaRrK2oUO6/YeULI6ECdo6b1jV1Ow5cf+8UnZBrRdP6xj32sUx9pPeWi6Z7103RBITMmbGbQebWPPvoo0QKj63n7yTSCtG0LfKRzxYbrvPv0y64nhBwcK1oUnaK+sWGKLx/aebsfQvKCpvFjx4515kk+6JWjZGTYSsMaKwgyzbhODioEpG9FHSj3abC7HSFkdGh+sy3/aorNc8ifadg8TEhesWmc9dL0wxaZMaG31a0QbAWDzOOrNPCT2J+GlQuZFGy6ddOlTbNuPHcbnT766KPhfD/sPi3YDyHTxEHLdd0e+7DzGIe5X9xzOci+CDlskH5tnlA0HKa9ArLUOWS6GGmLzNZqN8EMtNWteKtxsCWrpzZkN15Suud2SjbsiqEI9uteR4pphnEvEd1rbBcby/ZXn5AnnnhCjh8/I1f2MlRy2+eCuMdDO6MbEHII2HSJSsOtPBQ3HkS8OlwwK+rd7QcxbHxCjpr9plmbR2A2H6lp2EFw90/INIM0rPWQGnwvkj/y96turQaJtiy1ePFI6VMZIHMNqjgQj5C8oWneOmJW1FiQB3yG+O42hEwS+0mj2AYPAOxDADevDLtvQvIG8gPygq++UCP5I2dCZktWyxMhYUKCLNVTwWhGsi0zlkRMZj4yA7hCRqfDOGXMG2QS0TTsio1hwHbYjy+f2P2rETLruPkA/hP8LdYX+WSkQmbperdQDa2xEq8RKa23k+uuL8VrpokluW6vIbDuJZZkvd0N14rmrd/oVkiWrBkLmZCQvKJ5Aw6ZnbqOWj+YT8gkYtMk0qhrPlyBgvxg84RL2r4ImRVsnlHcvMY8kl+OtkUm7AYWJbBTG1uycaqb4HR8Sfq4FjNWBWNh3C5lzaoU7foEu4ljHWzcTAa2vtI5FgTMI498RbZNmE6T7Mkb/9Pj8vjjj8fjZs7JdrwmG9tyLh4/w3E0ZFJBvgDqqMHUcdNXlsOBg/kcOUImCaRrN333Q9M10redAt++hj0GIXkH+QF+1aAHxmT6mZiuZc1qWarNeEFW5IWxNdg0pVosmmMpGjZaMYPMtPf65+WRL/m6u9XkSx/7vFz5fpTJQovXiLTkwuc/L/+lFS+G1GU5fgnAQPauyJnjy8EWSVoXTsvxc8PJIULGSSftBwYgWPAUGoZwGAUNmUY03cLcNI10jXWYt/lDcfMMISTKF5gyj8wOEzRGxnbNui5D65il68F2jUACxZTWpa372lmTQhzUAesCa6+X4sCm1G+PTslEGWhLNn4vVkwrb3cqJnvMb377eykZriKbDx7Ij3/8Y/nbywtxWCBw3hgkRPbkyssXgpgBC5flbrCPB4HdxT7qy0ItQyYVzR+YWtO84xMzaohDyCSDdGwtTawjPWdN10z/ZNaBH2X9KXeZ5JPJETIrl2StR3GMh5VLXXFTOFsJJFREs30/nhsN2tUNY2p+9lYkzXR+/rMQJkq36dPmtcrm12UxmGr8z52/Jh0tU2/072K2/YZciFtyKq+el/loVubNPuoNKhkyeVhnzHXMdBmW5gi62xAyCfRLt3Ye8axhexesx/58cQiZRax4oYCZDSZGyJSKJ+K5cVOSQzuUIcpQW/IVHR9ju5p5M9yzMv90PBsyL88U41lpy70+3cv27rXjOW18sWNkTncEjrTvCUfLkEkADpnriCFPJPNF16nTqesU2n3BCDkKkP5sGsW8azYu5q25+OLACJlVbJ3hGsk3E9S1LKeYFxo88siXvN+3idYFAqeT356Vz853v5GhPF2wrTgHpLUr78ezhEwb1nGz9pOf/CS0Dz/8sPOSAAicNNx9wNKcTULSsOlG098HH3zQkx6RlgDqBlgWbPyw3ogt6/aETBtI2/3K5o997GNy7Ngxeeyxx8J5NeaJ2YBCZpzsbsgp+12blUaU6cxrqUFUMcUL2uryvWTF9v5uYuR/Jiqb0fiYXrsadlsjJE+gQrOmFR0EjVvxqVmiPNjrIMJJVLPbutuTyWXUv5ndH9IY0hfSGCFkNNj8pOUwwLwNI7PHlAiZpiSGr+y+Fw1mn3B2b9eDM49YaQSVXuZv57Rk7+9txtyTbo+xojyDgS8e5rt90KTdrw8aITnEOpfW1NF0n4rDgJ0/CHbfo9on8ZP1PkOIug5P1u1tPKQhnbqGcJ0SQsaDzc/WgJ0n+WeihcyJIobhi9RubcVzu7LxUrUjEKaF1nt4I9qWrNpWGoPNejf+4zl5J86Me1de7o5vqZT7t6YslqUSz7YuvNx9XfP2OX5PhuQaVF7W6VRTp9I163iquduksZ8Kst/+yGRi0wLSB9KKmk07PiOEjB5XrFgDdp7MBhMtZOwbxaRWjhOs+w0YywnpaJ++H8Q8HBJvRKsW4/M3H+0MaLbvxXMu35AvP/GEfPzjH5fTHRWzIJdfGdQpbFGubnakjFw4HQ/2X8ZXZSry6vk+TTqETDGo1FCZWYcU5ooYNZ9j6m4H3GO4uOFp8cjo2O89xu+o5v7eSBc2vWBq49htrBFCRo/Ns2q2668amT0mu2tZYU122utdMaOE34Ax34tJUJC1HWddsy2jfanyEPjOPzi7RlDJdYbJ1P5fQVtTl5L8Yaslf5AY36/flbkjmTTI4lV58GCz0zLTobLJ8TEkt9jKLM3UwVTnE2adVDfc7YqGaRbsMcn4OOg9huiw6cKXJmwYsGnBngN/d0LGC/IYDGKGzCZzQWHMR0dHiN5+XwZExYqprUAJIb1oZQbSijUNV4cUec7mPRtmt9dl96kfTPOlTi3uMpkc8Lu6UwXlrS8O5vW3tenMgjiEkNFi8x/KV5TJtmzuh90HyRcUMhOM/jRqeBpICOlPlsrMFnlp8REPFSTiucuIA+Dk2jjk8MBva39jC35XGMC8DVPcZcX+rmm/sW87Qsj+QH5CuQrT8hZCJg03L/aLS6YTCpkJw2ZYoN8hoJAhpD+ad3yV1H4qLjydB9hH2r40XM19OmjnyfjAb6VTay423J23v9l+wbbYLyHk4CA/oTxVg4hR64ebFw+Sv8lkQiEzYejP4WY0dC3Tda6DpSA+f0oy6yAPuHlo2MpL9zNMfsL+dQoD9omhDQe+MNKL+3vospaHAOvdqYtvvc73+42GQbdPOzYhpAvyyaA8h3gQLhof0yz5NetxyHRCITNFaKWNAac2Y8LYakPI5KF50z41RGWKKbBx+uFudxBGWfxnPa+sx7TxfPM6ZZlHyPSCvJxWJup6G0e/1m/FDNA4Wcsfkj8oZKYI/alUxEDIwDQDq9mnk4SQyQWVrq183co5jaMQPKMCZdgg3Di6nZ0Cd5kQMj3AfwF23s3bus4KGUIAhcyUYUWMnSeETCZuHnUFBpazVM4a193eR9Z4WR2CLGVM1jhZWlHce6b49p/lGgkhk4kv/7r5HGWZGkQM8z2xUMhMIfqTqYiBYZlPKQiZHtzKOEtRjAo9C1n2p084B6H7ybKvLHGUrNfZj6zHIoRMLijPbH5287YVL2r0c4gLhcyUoj+bihc7ZmZQ5U8IOXyy5susRXGW/em+suxv1Oc2iKzHGxRP12e9RkLIZGJFic3PNv+7QmZQ2UBmDwqZKQWZHq0yaoSQycOtfG2ROwnF76jO4TAcDPcYk3D/CCH7A0JG87HNyygzYWg5dvM/IQqFzJSCjK8GEcM3+BAymdgK2Ba5dj5rlwm7TRpZK/ws+8rKKJ0MPS/33OjEEJIvkKfdvI4WGDslJA0KmSkAP5GtyBGmU8x/9NFHPQUCIeRo8eVbYJc1no2bRpY8nnVfWVtys+xrVOeu6Hm598ZOCSHTj+Zn5HNMNUyFC0yXke/Tyg+WC7MNhcwUkPUn+slPfpI5LiHkcEDFbPMm5veTX7NU2ln3myWedST6sZ9rScPdF45vz0Pn2aWWkHyAPG9FDIQM0DhZygYyW1DI5Ai0yLim2MyOMEIIIYSQo8D6IuqbQLjomBidwm+Zddz7RJIMFDJ/8Ad/IH/6p3/KJ19TgPtTDvhpE3zqU5+SH/7wh6ERYvnMZz4j//qv/8q0QQghZCxYB53O+mxz/Phxefzxx+U73/lOHNKfgUKm0WhIs9mUixcvxiFkUkG/cjU7n4Vf//Vfl83NTfnEJz4RhxASsby8LK+//ro89dRTcQghhBByMNQ/QcuL7UqmUzK77OzsyJtvvinXrl2LQ/rD1JIjbGGAAkENDCNsCCGEEELGDXwV12eZNeCjHYaflidfkEImR9iCwCdmMCWEEEIIOWqsz2L9FTArD1+tiEmzUZInf5BCJofYgoFihhBCCCGThvVPrJ8yq/jugy+MJKGQySlI+K6YYWYghBBCyFED/0Rt1rE+mjWLr5XGZ7MGU0+OQUZgYUEIIYSQSQJ+ic9pB2nheQeiRF/cpPbTn/40NCz3M8RF/LwLHHq2OQcFhDVCCCGEkKOEfkkXV7hYQaLfCFSz4mRYy7OYoZDJEf0SqRYU9ukHyHPiJoQQQsjh4/oZAL6I76OX0+6PDHPuuFaYig1XuFjxAgGDuKMw3VdW7LkOs91hMBNCZmu1q/pDO7Uhu/G6kK3V5HqvrcpWFFlW47DVKGBi0HPyoeEQMRAyiOsmTrsuT2yfOy7Hj5+T7Xg5ZO+KnDmu4Uk7l4ikbMs5TzzXercjhJDDJyrv+tgEFFZ7V84kzqNzzixIpx74EWquf6E+yKOPPiqPPfZYj6+BbaYRe5390PUQEv2EC4QG9of7grB+ZtHltGNlETN2vzAbPgnkXMjsysapOSnX4kXQrEqxI0xmDxQWaj5hkz+2pVEPJgsFeToKiCrR0xekFS9b6stBZXrmiuzFy4QQQkaHipbTF3ylL8kDcHLV4GfA19BpHrH+1CD0vkDMQFRY30v3cRDz4Qu3AidN1Lj7tvux80dJvoXM7m2pN6PZlUacsdrrUgpDanJxI9EuE7AiDY3jteuyFMeaZpAQbcFiE6NeqyboXLF3T9o6LT4j8zrdPtetRCub8uDBg47dvbwQhbcuyGnPk8HKZjeua1cX40iEEDIJLFyWu56y6sEEFlaLVyf33MjwwDEe5HPkHfiQej8gHDAPQ5wsIG4/8+GLh/OBmIKo0XUu+N2sTQr5FjL32xLpmJIUT4QzIoU1ubQSzTbb96OZGcMWJphXMEUizw3v74YtL5WyVpB7cuU1bZ7RgEDEOJXm/Pk7XTFTf02usFmGEJJT0rpzueFhC7Yua0u12yXX88Cnp2tbp4U7KH/PHJfluAiW+nK4XneR3rWst2vvmUTBHO0T4Z1zjc1zemTMwH+An6HjYdTX8I2LySsQCmoffvhhQixAvCh6L+CHwffCOh82Tj+z+Nar4fxgVmTp+mkh30Jm6QWJNEtTqsUg88RjY5auxz/k9Ty0sQwHChHNONbyzHbUr0wK2q9s7125icaYUNj0Mn/+VamEcy3ZfT+cIYQQoi3VbpfcQIx0hYUjVIBut5/uutvnAjGyLL27O+0VUBrudlmrL5/hA6kjAv4GfA7M5x0rFNDKAcM6MOw9QfxBlgaOr2bjIgxCZhhBkyXOOMm3BytLcr0RN78o4dgY/eFOSU+vspCalOMf1rVT/g2mEvfabAGjli/25J72K1t4UZ4P+5WBWNh4eVoKcaNM+16yBgzHz5infR3jmBpCyKShAqKnvHJeejIkC5fvxl3U7kqnJ+7Nd6Pyb/sN6fbajbuK3b0clLYBwbm8sT0v5+88kM3oSVHUKh7E8fcmM63ntoscNg4EVK+WWZDLd53jBrLr5rssnQ8T61fgYWn+fItefGLAOvl6D3xOvxvHNdxDNX1RwiDD/VZLA8e08TRMTc/biq9+ggbhaesPg5wLmYCl68ENbst6NDAmJmqhyZM42Q9IwEjEmM9VoYMWGIyPIYQQsk8q8up5lKTz8vyLsZKJ2QufGgUEwuMViJP583InFiFDDX/ptJ4H4uTa+W75vfhKR0DVG46Sqbwq3dN7XpzTI4cE/IhZ6UoG5x8CwE51HUQI7gvQdTAF8azZbnnDmG6D48HwWyBcpwDhOB9cg+96XHxhh0n+hUxIQdZ2kGAacXczbaBZd95clj7Yf2etEMfJF0i8dh7LuSAxPsbSr9vY+7IbP1UsPpOUP6mD/e+YipYQQiYB72D/qzKMnkhg3vzo4/1uwXnw8jAuu4OdSbIYnpdnivGsw0J6Mzs5RNRJVmc6d/6EB/iI6uS7zr+GK65vhXkrMqwAwbxtZUGY3Vea2X3A3DBdxrkDbGvR9bgeXJPdZhLItZDpfD8m8d2YJbneeXNZS96b7UaZHmxmyAOJ8TGKeUrX8zQvZu/Ka3Gf7H7dzwghJCe075musXF33H3wdLdP7sG72j5diLuGtSXZw3f/50cOBzjEannxJQahzr3P2bfhagruD0QFhIoNS7t3dl9ppse0v4HdpzWcG9BtYMCeP67Jxd3msMm1kFl6Aa8nq8q6aXrZWq/GbzNbkJP5bGgZCiRCJHabqdSQQDUR24R8lAk3G77xMfNy/tVuH2t3bIu+8ab7ambTTYEQQvJKa1c6DdRmnMuwzKOpJBwPE80GO+y8dSz5trEBzD8j0d5acuFlU07bcTgpL2wh4wP+gmJ9AvgQ+qFLneYJ1/cBaH1Rs/dBge+kZkUAwuBfWV8L2/QD2w8yFw2zx8Fvhd9Lw3Cd9lqxLw3T63Bf05x2PHc/4yTfXcuWAgETj42plbs/MD6QWQoETfK9ZemD/X0vCLD7tDatY2/03G1CV9MwYOeVw0qk+yfuIuZ2c1i8mvxejBkI2xEx2iXD06E7dbB/YENV0oQQcsQsljHqvi7LKMt6Xjk2BHb8SqesxFvH7PiamPj1y/6yc1GuYmC/LadxfpVNfrtrgkjzG/JA2vXAuYdQgU+k8a3hnvSzrPi2da0fNp7ttub+bj7/DteqIsZe91GT8zEy0dgY++IyoB/IzOu4l1FhEzwSuE3oE892I6xAff2m9XsxDx5sxq9ZThKOg+GYF0JI3rEPdWL0rWSdt4oNTfRWMnef0Vid7ticxav+sreH4Px85XRYRlPFHAmuw55nAWPBtem1Wyce9wJTF989gk0COBff+dnrAwhz7SiZC06g7xk0Gg1pNpty8eLFOITkkeeee07efvttefLJJ8NlJAud9su0mthJvlleXpbXX39dnnrqqTiEEELILGLrfji+k+igHxS9Tvda4APBbJcyF3s/9P4gzDedFPRa4O+5Pp+LK3wwPwp2dnbkzTfflGvXrsUh/cl5iwzZL0icSKA2wWI9IYQQQmYHdWzhC6jZMR6z4BfA2XdFjHX6cW8wr/fIvU+TeK/sufp+V1wjzAoezGP5MKGQIX1BhvNlQEwJIYQQkn9Q7/t8gjzjc+BtuIJ7AcM9mlTsuVv0nFXIYPyMvSZgRYudTyPtWKOAQoYMxM2UvkRNCCGEkHwDJ9f6AnnEXhcccDjj1iHHPbAGXwn3aBDjcvAHYa/LxV6HvTb3enRbiBhrhwmFDMmMTdhZMyghhBBCph+t82dBxLjAWYf5wP2ADXOPssQZBzhuv+PrOuvzwQBESxYR02/dQaCQIZmwCdgaIYQQQmaDWRMycM5tqwOwvhDMdfonGfcc3esDiOeLb/FtexhQyBAv/RKkm6htwiaEEEJIfvDV+WqzAvyhtCnuRxYBo9tkNV+XLdsy5K7z2bD4tsW12etLu05st59j7xcKGeLFl0AVDdfEjIFg+CqsGrbxZQRCCCGETCao2xWtu+Eoa7jW78eOHQtt1sB90CnQe6Jm/Rw4+riHFsTRfeiX8T/44IPQPvzww9Cw/JOf/CQ0LLvmrvvxj3/cCYfp/uzX93H+Lr4wmwYU99rs4H/dr+5f0WUFx8Jx1YC771FCIUMODBIxphZfZiGEEELIZIH6Gk6nnZJef0bvC2yUYH92v+48zIJlPU8YBAVEBq7B3TYrOC7EDcB+XdLCR8nAD2K+88478tZbb8n9+/fjEJJHPvnJT4bq/oc//GEckh03CR1GwiWHx6c//Wn5wQ9+IA8ePIhDCCGE5BWfk7tfx3fasf6Mnd/PPcL2mCK+z2dK29cwcdMYNr7FHj/LueznWL/wC78gCwsL8rWvfS0O6Q+/7E9C3C/7D4ur+nUKDpJpyNHDL/sTQki+gSuo9bXbGgObJfR+wJeBX2PvEaYwe69cdDsN1/2gy5eCFg3sX7HbYx7r9otur8ey5jtPH+556bIargXLuh5xMI/j2HVZ4Jf9yZHgJtxhMgohhBBCjh7U5ToWYlinNy9YZx3zai64V7CDknac/YB94Rp0ChvmOO514VqzpI1hjnMQKGTIyEDCRuLGPCGEEEImFzioqLsxP6vAAU9zxHGfRuXnuMez936Y30G3t/uy5ooanc+KjYu0gXTiguMNs/+DQC+TjAQkZiRuvNkCRgghhJDJROtprbdt3T2rWEfcdchxb6yNEogD+FE6zWI4F8wrCIMpei1uy4y9Ph92e6DL9rgWu98s+z8oFDLkQNhEigSNBG4zGCGEEEImE62rKWIi1KfJ4ujjXtl71i9+P3D/1fCaY3cey26Ya/C71KwfpqbnpteG8S0gyzn74mC/apb93IP9QiFDDsSghO0mbkIIIYRMFtbZZb0dcZjOuN5ziBBXfNgwhLthdlv7+2EfNkyva7/XZrdL2zc4yHGGgUImYHfjVPhDnNrYjUO6ROtOiWcVCbAJ2EXXIYPhCYLNZEjkSOganmbZ2JMrZ47LmSt78XKS7XPH5fi57XipT9y9K3LmeBDXWme7mDDOGfEfalvOBdu4mxBCyDgJyzi37FLrKYxmr4za294OSv384qs3YYrrUNq6WQ11M+LPKtYvsb4JpmquWABY71uXlbTtbTjmXdPzwu+qpmHutSiIjy5mCBsEtrPgeBruHkfn0fqD44wDCpmAwtqOtNdL0qy+lBQsuxvyUrUpK40dWSvEYSSBL2EDrENhqVNfAWATP7axdpiEjsDpm/Li3Qfhd1MiuyuX28uBQ3AuqP4JIWSCqWyassuUX2euGEd+Ua4G664uxos5Z+/KGTn92r14KT9Yp1HJUn9qmHV4IWR8cWcN+CLufVVwP+HD+HyZg4Dj2n265+E7Lx+6D/hbCvat6DoYwrPu1weO5e5PlxUKmUOksHZD1ktNqb60IZGW2ZLVYlWaKw25vhQGkAOCzINCFAUBErxiMwLs0Ng+J8v1Bbl8946cn4/DQubl/J3AGVioy2sprT2EEDKZaPm1KZXWBXmZ5VeusHWn0q/+RF1rjfRi71k/Jvn+ub+z71yzXuc0QCHToSBrN9al1KzKSxu7srVallppXdpUMSNDMxMEjCp4PDGAoLGFr2uHwXajLlJ51RExQJ2BB3LHv5IQQiaYRXnl8oK0br4bt8q4Xcui5W53NLf1ecB6tzuu7bO2fS6KH04Rx3bLxbkkj9HT7bffMRR3fdwCFbbGXGiJBELudGp34OnHV2/CFFv/os619S4Z7NzjnqlNOnqOaCnB8jjBfVFz09S4j00hYymsyY2wi1lRyrWSrN9YC+QNGSWaoLUQhYixYkZBBrCm2EwyHrYl1DHlGelrQQiZKeafKQbO/K68Hy930fGCy9K+fLfTHW2zUpfljlBQgbEsddNlLVyPrmoqUE5fkOImurJtSqW+7AiNIH6jbLZvyYWXbVe3IMZyQ8rx+geblUB3vNwVHeExbJffuLscjqEiJjgH6VxDsF4C4RKsnz9/R+4GIk4WLsvdB25r+3Tj1olZ6k/Ut2rY1saddXz3AvcOuMuTDM513Ofcb/+4p+NKYxQyDoWzFSnpTKkiZ6lixootUFGojiKztS6c7j6VM7YcCJXhiF4IkNhPop95UBmfdtaHFlT6cQxCCJls3pfdVjwbs3g1EAMYQLPdCMqzimyaATXh+jvnRTVB1JK9acbbLMrVQIhIvWFabRbk8itm+3Kw3hFVC5dfCbaMWSwHR2zJbhxBj7Fw+ZoRIfNy/tplWai/FoqdvXdvSisQKtc6EaIW9M415By3zrR1qZqvnrX4wmaRQc427tO03KvDPM9B94VC5tDYlY2XqtIslTpdzMh40YRvC9m0glbpl0ksC+bJojWtW4cjrgzj7cOnegl0PE3yGJFtBpUwIYRMA3G3s84DoGS3sb177aCoK8jT8XKSPYlWO2tDIdKWe52nPkV5ZkBLSDE1QnSMngdUpy8EUififVVixWdCYTVL9KsndZqlbvWFzQJpjjXCx+V0Hyb2GsZ9PUhvSEs4nl0e14B/ChnD1mpRqs0VaezsdLqYrW7FK8nYQEE6qMAdL4uiDwnrDVuFE0JIPggFSaXcbfUwaPer7kOYuix7BM1Q7N0LZMyoiFqM/A+o8tVV7KCgzkR9aseiHn6dOl2oow3nu5/TPy33ENeT9boOSpb0Na7jU8iArVUp10RWGtdFh/dHbzETqZVXhVpmtNiMBTQDoOA9KjETdneIuyoQQkh+2JY3LrQyjAGMXssMQaPPddLH1ijzEq121r6/K60MrTDZeFoKC55jGJ7WCO17iTE3swrqUrcePcy6dBrJ4uxP2z3E1/t9Ptc48R1rnOdAIROyJauRijGvWo7fYiY1KbNZZmQgMfsStS1wYZZxZYIOi1fl7mUJx70kX4gTjZXRN99UXo36hRNCyHQQDeavL1wWM0zFEL0tLPGWsHhcTKh7wm5izqvn8SayYDZ6ALScfAOaDkhMaf0Znnk5/6p7jOCqrpzpnMP88y/KQuuCvOGuj8c09hdj04+tG7XezPIwcOz1ac5Iu4+jZhS/i+4D3bh0in3qFPPjuh67X/cYo7g2HxQyKmLmUl61HL/FTGpl71f/yfBowraFrA9dhyZxNQUfVcKHlWxmdAvsg+SVsItFoGbay6Yv9vHTcqEYvbFnVj4gRwiZUvSNYZ2yy5Rf8eD8XhblavQEp7vNclsu370aCxFtpdmUYmK9yOaDeP3iVafMjN9wNsrCUo+xGcgpUy6fvlDsnsP8ebnjlNunb74od3HNsRjTLnPJh1STi3U6Lajr1D766KPOU3ddRp3Zr34Fg9bnmbT7asGyjath47pv9njwcdLOyUXjYjv4SkgbwF6HovuyHyofBbpPNd2fu0+Ej4O54OL6un2NRkOazaZcvHgxDiF55LnnnpO3335bnnzyyTjk6EGmhCGzIjMj04ABSZnsk+XlZXn99dflqaeeikMIIYQcNajz4CRmFTGzjvUVcK80DA9L4WfoVA2O+X6dfuwPIgMCA/vScEXjuDYI3TfAPM4bBtx9q5DJcoys6HVAQOHacHw9joY99thj4XI/dnZ25M0335Rr167FIf0ZjzwiZAQg4VvTggSZUPFlVkIIISRP2LoOZutFndq6kUwX7m9rRY/PVDBANLjzePCrIE34LC9QyJCJBZkNBTUKaxTYipv5CSGEkDyRVrdZEWPrRTLduH6NmooTazbMjatmgR/lWl6gkCETjc2APjFjBQ1gYU4IISTvuPUi677pxfozmB/0e/ripS3Db4K58aYZChkyFSDTuRnShhNCCCF5wD5Zd+s9a6z78gN+b3cK3GWL6wu5acauh+UFChkyVWjms5nTNaVfZieEEEKmCTieWsehBUaN5Af1W6z5uowpad3JLP38pDwJGDDwrWXvvPOO/NVf/ZVUq9U4hOSR3/zN35Q//uM/lk984hNxyORjMzEyNsLJ6Pjt3/5t+d3f/V355V/+5TiEEELIuLB1GEQMzHVG7TzJhnt/FQ3TwfLwJTRcp2q45+jCNyzYn+4bx1DssdWAhmOdi26v2PVuXF2G0MW+3DjjQK8LLxvAfcJ14RyyvLXsH/7hH+RrX/ta5reWZRIy3/jGN+Sf/umf4hCSRz7+8Y+HiexHP/pRHDJdIBkPSM5kH/z8z/98WPj8y7/8SxxCCCFknGhdZp1PzNswMlr0nqf5EKO4/8P4KWnHGWbbw04r/e6foueT5Zz0gfqv/MqvhGImC/yODAmZxO/IuCCp+jKCrsOTFDtPDg6/I0MIIaPHraNs3QanD4ZWATWA7W0YGYzvvmkYXl+s6Dr4EXrv0Z1vFC0yaFXBvjRc0WX3d/adI+bVLO521hAGcE5ZyBpXrwMtMoiPc9RlvTZ+R4bMNJoR0jKThmshox940oyCwgDYeRQAyGCEEELIYYC6yNZDcJhRJ2ldpvUYvryu5qv7NMwXTgbju2+4//a3wDyWx4meE35vK2is2XShcRR7jmoQFGoQTlgHdF9ZsPvNCs4VYNusxxwWChmSSzSD28JAMzYqC2QyFAKEEELIYQPHDnWSNZA2T/bPoPuYtn5Yh36c6DmqWcGjuOeHcx73edtjpB0v7b4eFHpyJJdAxKSJFZvxCSGEkMPAdfC0HkJdBUP9ZOso1lfjx73nil32OedHAc4TaQVTRc8RD20xRfhRnT/Od1xQyJDcggxuRY3NTEeVqQkhhMwmqHfg3KFucg3rYWS8pN1vzE+CIFDc9GN7nig4P8TzLQ8DjpMF91gA+8i6n2GhkCG5RjOOZnLtU+rrV0oIIYQcFnDmUDf5bFwOHxkM7r31D2zYJPkNel7WfOCcrQ1Lv/0rWfav22vaHgf5FDK7G3Jq7pRs7MbLfdjdONX5kSJLbhetX5WteLnD1moYf9VdMcSxybjYktXgt/lK/NugcnCfXIRsn5Pjx48n7Nx2vE7ZuyJn3LCQbTmn8XtW7MmVM8flzJW9eJkQMpV4yobIzgW5/3DYPhccr7fwCdm7ckaOn7kSlDiGQeVZXD65cdT6l1nRdimnciDC6/CcT8+1jZCjvq9df+N78sb/eExefqcrYBL1ExkbPqe73/3XuHas7SSB83YN5+l2NRvl+WNf2K+7b3s+42KGW2R2ZePUnBSrC9IwP8DDdkXqxTk5FSuRwtmKlKQl7znCZOtWTUqlktRuJZXM7u26NEsVOVuIA8hEgIwEUaP2jlZmy225fPeBPHgA2xRZDsJRS80/Ly8uiLTvOZXRdkPqCwuyUG8knZq9d+Vma0FefH4+DiCETC8V2eyUDZHdvdwOiogzMmnPKkIHfFmS53v3srSD8sx1phcu301ck5Z7xQunU5x7ddJPy4VWvDgOFi7L3cT5PJDN4gU5fYiiMY1R39duXfT9QMSckt8P7msQ0gknRwd+A/wO7m+S5qwfNThP69/0O/dRX4O7T0zt8cfJzAqZ3Y2XpCrr0n54XZbisJDCmuy010Wqxai1pXBSFqQp7fvR6ogtuVVbkUuXAg+3divRWnO/3QxKs5NCHTMBOBlZ6WT2d74qX66/FFROd+R8QnMsytWg8qnUl+NKal6eKYq0dt+PVsdsN+pSefVVKUpdGramfX83kL1FeYY6hpBcMn/+jmxWWnLhZV+LQdRS69UDY2VP3r3ZChzpV4ISzDB/Xq5dXpDWzXc952oJyr3AOV8Iyr3EuYct0oGICWrBoLZLJ4w3WnG3ePWuXF6oy/Lh30zD6O9rWP98/4qcfqwkvz9XkpIGHpLDRwbj8xkU66zDjgrfsTu+TYqQUXS7w2pVsvfIdy6jZEaFzJasV5uycmnNLzgCMXNpRTWKSpQleaEzH7N1S2qlopxYekFWEq01KnBEVl5ISCMyYczN7ckbl74hpT+sJiunDovyiqmkFssVkUTLy7Y06gtSeHpRdJVtrVGBI5Vyyn4JIXlg8ZXAOW3dlHczO+5xV1Svja7VwX3goqjwenDnvAx8thI456+GRZ0p6d64IKKtDHf0oc1hMy/noxPqc3+m677Codt+/fdl7g9b8rP/9n/2F4hk7FiHftwO97jRc7ciBtcCUYFr1ek4xIx7HOUw7udsCpnd9wL5UZLiiXjZw1KkXsLWlhPFUlCSvSfQK2G3ssrZQASdkGKpKfXb8ZoM+yWTwH0JG87+w7Ny7NixjumHpjCOZv75F+XZ1jfl27tBZn96Pqhs2qJ6JSwc3tFuZS/KFwpz8nQhEDzf/LbsBoWCPr271w72W3g6OgwhJJ/MPxM49i3x+LcpaEuv7XJk7eoIHnzA6V+Onfj9tY5oeSbte51WhsWrD+ROssn6cHm60Cl7/UzmfYUjp/WF1iefLep9fV/+Ln7hTPn6z2Sn+uyhOHnET1iXx2bRZTue1ufsa5h+bNK3zqLrB8UZFt85KwjHebvgXNAio+aSdr5pYboPfHAT+8M5AJzXOJnhMTILcjJj/69wnEyzHbi/yq681ypJJRwEU5CzlZI067dDkcPxMdNEJDg1w7kWZbw4ms587guy/GzktGjm3fu7tiy8+IXwSVwoeL57U979fhCP42MImUHsQO9lqQchdR1nF7cMHLhnVMeJTtppd9DK4tXAedfuWLrQkgunEXdc40xMa8jpC8ER7TEnbwxRD6O4r7Hjp35e17ofXVaL6pWgftD5wEFGOJlc8Lv5fqvo9+5aGv3WjRt7zrgGhLnnb8/TxrP4wnQ7FS++/bj4th8lMyxkegfwp1I4K5VSTcLeZbu3g4qqK1asyNHxMVFLDZl83HFPEcjIWvGEf3NamM3LF158Nu5ysSffvimBWPlcFL/wBflfF74re38fZCUdH7PwolDHEDJLzMv5O2gF2AxqB5HKZrdl4OpBmwUqm519WbsbedYO9lwC29SzqcvyWN4AZlpDdBxI8Nd9cYo79nACGeK+zs0VUu/r96IoHVCHRPVI/HAsWhP+J9OB/n4W/KaKddr7OfBHiT1f91pAFhHiA/Ht9r59ZDmHUTCbQsY7gD+Jdh+TlRfiFwEU5GRQtrUC5RO2utjB/OG+VORoS42O86eMmXy0S2D0e1qQ6bTi+f63vxmIkv9Nvvhs3NXss8+KfPfvZG/v2/LNVlGe+Rwy7rycDFbVG+/InvYrKz4TttQQQnLM3j1pB5KlnFmkHM5Yjh60NUGd7ozjed7fbcnCi89PThlmHw65r0AOm7qO5r4+/OLX5f/T+/rdm/Ltva4Tp74a6hDtnoQuSu/vDvGQM/60Q8d6vvFAxk3i/sfmwzrxSAOTgnvuvmtAF7N+5++GI25aa4w9br9jj5IZbZFZkup6SWoXNzrjXhLsbshFZ9C+jpnRLmS3201nMH/0MoDWrXWpN1eE4/yngYKsXQp+z+p64o1zima4Rx7Zltd/vxVUPF+UZ1EZLf0vUvnuprwbeAPfrZTli0FcZOAv6oj/774tb9xsSSW7Z0MImVJ0EHxrqJd6jHksR+jkp3TnCseZZGDvirxWn6SusXty5bV6V1iFXbzMfQubug7nvr7h3NfQMXt6Xp6NFuIw/dcVMGphvNCfQHf0DCxdTziID6/TqTgKIl9g8HgTO1WbBHDuOH9cg51XIGRw/lnBtcLc7XF893jjYma7lhXWbsi6VKXofuxSP2hZrIqstyVRfpwoSqlZlWqtV6zoywCatZo09U1mcRiZcILKorFSk3LPx0v1Y5plqa00ZKda7GTIRx/9rDy70JILF+pS+dJvdDJnmIn/h6BCa92QekvfZBYGE0Jyin5XZDlw+C+/4nOTI8f6wN3JhmXxFbms5dPp3laISHS9OqCr17ac03EuA+OlMH9e7oy4O9n2Of12TUVePco+arivn/9qz319541X5buV/0Nemdc6IrAgbO6RbitMRFCfBP5Ec+WS/Of5yXF0SX/ggFtzcZ1413zbHBb2vNMEhZ6jK2IwTcPdBmaxx3ZtXORYyDSlWuy9kfjQZfhUfif4ERoSOLMmTjFwVNsPZWfNeXoSjpMJpp3uZl2ij2YKx8dMGLWy+V1hppl+6Xrw+8cfQO3GKYs0gnCjYjX8kUeelS+GCeA3AyHrFAyf+4K8qI/mOD6GkJxRl2Wny9LpC0XP96eOmmhsTPSxzuT5vla4G7dedGnpRxoT8Zalra9ZHrkCi16E4Pu6fYKWfvzSns9xWW7rRzJH8eaxg9Dnvhb/m3xwbSl0FKPWl8Dr+L2FhOOo9UlrvS0/e+s3wr0NchTJ5ID63Z1a5x1OfZpjj3RwFODY1tLQc7bXYMF2WGcNuPu2x4SNk7ngZPrmrEajIc1mUy5evBiHkDzy3HPPydtvvy1PPvlkHEJ8IAP7Cq9xZ9ajYnl5WV5//XV56qmn4hBCCMnI3hU59+7zcnWylN++QBmvUwgWLMPS0DpC6ReHTBa2ru/n6KtpekiK2O7vDP9A94HXFSsaX9FwRQXxo48+2tkW2wF3OQv9zh/7Uxt0/ordj05d7L7sdFh2dnbkzTfflGvXrsUh/ZnZrmWE7AebUdGFAEYIISTJ3rs3RZ6ZbhFjnT/UAagH1LBs0W1825HpIcvvhd/Y/b2nBZw3RAqEigviwdLAPTvM9E7vi5AU0jIsMqiaFTI2nBBCiL54rDjE290mE7d8x7KCMMsgZ49MD/h97e8N8Bvj93bNxe7LNZumRonvOK5hnY0PfNelZsE2afsYNxQyhKTQLzNquBYAaAp+7LHHQrOtNHZb7EsNTzxsYYB1vm0JIWRaWbx6+ONc0hwuBWWtWloci5bHx44dC80t59PKaQ1nOZ4P9HdEPY9uX/hddarpBy0Z7lfugU0Huj9NQzY9Pf744+Gy7Vam2HnFXc6CbqPnj2O6psfG8ZG2dRvkDRiu0ZqG6/XgHsEOO+1TyBAyIjTjIlNbcwsFXwbXcExhhBBCDoZblg4qY7V8hqEMJwTY9GHTkE1XanD0LUhTOp0EBp0HruOjjz4KpwryBK4j7VoPE+ZQQkYECik1+1QCptjMjjCg62CEEEJGgy1brbnY8tqW38DOk9kBvzvSgzUXm77SHHy7rY0/KdhzUnOvw+YNxDlKBr617J133pG/+Iu/kEqlEoeQPPJHf/RH8lu/9Vvycz/3c3EIOSjIWloI4GnGUWf4/fD1r39dzp49K5/+9KfjEEIImWzSylobbh1KO3XDMU9mF1uf67xrQNOKOvqKK4Z96cjd9qjB+eC69Hq1uxyuI+0a9Fr1Aa5y0Ov4x3/8R/nWt74lf/InfxKH9GegkPmzP/szuXXrVscRI/nkBz/4Qeio6heRyWhBFnOn08K///u/yy/90i/Jv/3bv8UhhBAy2WQpZ12Hy+eoHdQpI/nBpimd71enI92kTQG2nYR05l4fpv3O0XddB70W7cr2qU99KvzsQxb4HRkSwu/IHBzNSmkZGNlMp7Z1xobb6STB78gQQqaJrOWofWLuM0JcUG+raUuFXVZTfGlI5zW9ua00k4B7DTDgC8N1aCsMrsWd7hd+R4aQI8RmdItmbBgKM9dsHEIIIQfHlqtumYuxjGo2nlpWXAeP5BubjtLSD0DawJvM7FvNJiHN6DnoufgM567mXhumuHZcv4Kpj3FdM4UMISPCZnTgZlxdbzM/CgCfEUIIOTi2XNUyVx1QPElGGWzL4qyMyzEjkw/SiluH+9BwiAIVCZMiaCBacD4wnCvODVNcL/IQrv2ooZAhZEzYwgBmQcHnGiGEkNGiZSucMJS1mLdhhGQFacZnwIapDwDxYM31DQ4LnI+dwixY1mtQAaPfu8GDAIBrTMPd5yihkCFkjLgZ3QWZHxUsnhTaijWrWdIKJEIImVTSyitfGZeG7sOWiz6xgvIWy/sF2x9kH2R6wW+vacmtuxW3DrZpRcPRAqKD29V03oobu+1+wX50n/ZY9nj2ODg/gHW4Tptv3Lj9GDb+MFDIEDImbGbvl4GxHoUECkNMYWn7QEHlo99xCSFkkvCVVzYsS3mmcdRsuelOYYQcFKQrazZ9pdXNqLchMDC183YKw3b9zMZXw35hEDJ2fzhnn7n5Rm2SyJmQ2ZWNU3NyamM3Xk6ytRr8AKtb8VKfuLsbcsr50brbxYRxTon/UFuyGmzjbkIOiyHu/9Zq8nd2t4vTQu++omP0pIsBaTArKBB9rTMABRYKIouNb7chhGRk+5wcP37cY+dkO44ybrbPBcc75z/a3pUzcvzMFdmLl0M855zcfE+unEmuh525kthThLu/lHM5COF12GPAgmv73oCyyy3nYCg/08rOpC+QZHfjlMyd2ghKcsOgeiIu9904at66wN1fyrmQ6QG/pU13mKKO7ldPY70VHhAcH374YcesIOln2FZNlyFq0s4F2HPy2STCFhmHsIAr1qXS7v7YDx+2Zb1VDn7E1cB9JXkh/K3LLVlP/NYNkXIQjoqlcFYqJZHWe05ltHVLaqWSlGq3kmli97bUmyWpnC3EAftDCwwUiLZgtIWJTnHeip3H9ohLCNkPFdl88CD8vhbs7uW2LB8/Iz6//ygJBcGyJM/37mVpL/eKlIXLdxPX9ODBphQvnE4KFRUxy225fBdx7srl9vJYxExwQvK3P/6xfPDBBx37f4oX5PNPfDVVNNqyDeVdP9M4sGEIhU1ZpBGXr6G116UV1BOuSCmtt7txQmvIQrWYFCoqYhL1TuxfUMxMPUhfmt7Q1UwN2LTnm0e6gehwhYkVJIMM29kw7F+xxwcapubmHWu+7bDPo4JCxhIUMOVaKShgdmQt4YcWZG0nKGxKNbl4wCftZEIIf+uVoHJyf+sluR5UPiu1clxJFeTkgkizfT9aHbN1qyYrly7JgtTklq1/7relGYSePJiOSeArXHzdzmDAFlqEkNEwf/6ObFZacuFlpzUkZFvOHXdbQQ6DPXn3ZivQA6/IYhwSMn9erl1ekNbNdz3nalmUq4HoWagvd859u1EPdNyrcn4+Wg52JudfrYjUG73iYu+KnBmBuEOZpbb4f/2tXF6oy5e/+q1EuC3r1Gw5mGaIOzy7crveDARKNagZDIU1ubFekmb9drLlpoegPglETymoT6BTtO4IKg9T7wT+xaUVEfehGJl4kCYtNk2inoagcdMitofIAIhjTbdVrDBJs0H7SjOcN85Tp9bX8IFrsMc8bChkDL0FjEXFzEPZ8a8kU8WubFys9VZOHZakaiqppRfcSmZLbgWCt3hiSXSVba2J0tALKfsdDl9hhILFNRQ0iGcLl6MsYAjJI4uvBE5/66a8m9lxjwSOtwvVCLuqtXbfj+e6qPB6cOd8IEMGEIieSKdEZ7N49YE8uJqQRWPFLbMePvyc/O8QTnGYgjIusnfkq8eOyWOPPRa+SQkWlYWj60HhPshSCms78nBnLfAMBhCInkinRGezdD24luujqCHIpIC0aUEa1bSIt3yh/tYpsGneJZnWu2ImC9jGhz0e9quGbXxh/Ri0ftxQyHRQ51R9UBYw+ee+tJsiC32aTQpnK1Jq1uW2apQTRSlJSzp6JexWVhHtPXaiaJ/K7cp7LZFS8US4dBBQyNjCDQUKTAuZfmJGsQUWIWREzD8jxaBM8OiGFBblaqIrl7WryVaUfYHWkuVYHO2vdeTpwoJI+15q603YSrNQkKfj5VGD8gpl1tzTBVmQttz7XrLcQzn3yCNL8n+njgG4PoIHSmgt0a7levy0cbH90XpCWu+ltt6ED8BKRTl4zUEmDZtmUU8jLEpTvfU1DNh4WU1x9wdTNK/gvNxzsfsYxLDxx0EuhUxT+6SamwsrB2XFcHgG8CUGATalWnTWh1aWoQ9FDhltUYlnBxGOk2kKHsrtBmqlVDkbPolLCJ4RjY9xQcHjA2nOFka2UMI8IWRc2AH0yxK4+oGewPIIupl1xEnSTl9oxRFiFq8GouiuXA60SOA1y4XTiDuaFh8dg7NcX5DL19C6Y1qZTl8IjmiPuQ8hZco5lF8ouuaCcsw+rIG5ZdxQZV1HnCStWG3GEWKWrgenpl3LdcHW+aNp8dExOGGX9hsZWnfI1GLTmE3DVtzYeBZXhAzCFxf7hdlzwLJdP03kUsj0DriLrLESR8hM1J0M27ejksyg42mSx4isIUMfihwyXWEymIKcrZTirgHaZ1q6YsWKHB0fE7fUHBRboPQrVOx6ndpCyS0gCSHjYF7O30HryqZUgpDKZrfF5cC9syqbnX1ZuxspFgd7LoFt6tnUZdl9u9mQqIhR4VTZvGPGzJhWJh1fE/x1Xwxg42UH5RnskUfisi0oy7Q8U0uu9ztfvXWyxwFcaXjj9dbzStIXeBg6EzUpu283GxIVMSqcVhruWE2SV2zaRZpG1zM1DYe5aNobFhzLHjPZBTM9H00L7FrWIRrvgH6sJM+ckKilP70K2g3UihUlBR3xr10DwlYXO5g/ehmAphttqZGFk2N9qtapSB2zoGBCoaVTQsgI2bsn7UCylDOLlMMZI9ODttKomMk4nuf93ZYsvPh8YjxNV8SMQJT1I3aiUHaF9vd70grK4cVng3Js+z8lHb2vfCvYKH4NvmNRnFXZMuWjW04eCG2lUTGD1vgB3G83O634oCtiHkpiyAxfzZwr0urobjqNDOLCpnGd13hA57G/foa4dv9WwMCwDudjjzVN0MMxRIO6L+6rDyyZJqJ+z83qekrXgC1ZDyqYRMWz9IKsaKV1uy1NZzB/mG5at2S9HlRKYx5jZQscn9mCC6YF1jFnQKyGa3zFLfwGmcUWnuijjn7qhOSV7TcuSKtSHmJsy5jHyITfe0npzhWOM8nA3hV5rb4gLz7flTGRiJGwpcUnYnxlgo+0eGE5EZtbbj3yyPfkjy59IyiHvxiVw2EXr255Ew2Y17dMmrCE1aQc7yvrefYQioqUcTHh2MkM7G7IxVqyy3EkYiTs0dEz7t97nWQSQbrql7aypj2No2nVFRxadz/++OMdc19s4TNs06/ezxMUMpagAGmvS9gHNvkQJBorEz49ucR+rLkg+K0bK0FF11NJ6RO+stRWGs4b6rQVpynVaq1XrGiF1qxJrTnEuJtDBAWkNfepj07dAi5RmRqz8XQ+zQjJI52xIq/45EckWA7xZV8Ri6/I5QUdo9LbuhOJLvsaZR/bck7Hudh4gTiKRMzgbmJzhVfkv/74v8orBX/+R9kBECcqg4K4c8mnwmrf+k8L8nvNFbl0lH2ulqqyruV+sXc8zNZ6VZqpbzkFQX0SKJZEvEAcRSKG3clIOm5+gKHe7me+7fIMhYxD+ErF+GNX3URQlOpC1J+WD0emh1riN4zNKNTwNZjtitQTL2wIv3zmeQoWjZMRWZGeRpf4o5kyovEx40KvzxZyKmCsITwNOCLWIVGwnS1ICckHdVl2uoKdvlCUzX2OARkf0diY6GOdyfN9rXC35zXKLf34ZSLesrT1I5mdeHty5TV9bYEdwA/rtvxAoLhlghKVC98LX4TwP7+x14mD8qJT9miR0/ovcso8PdbwL7X+UNojefPYQYjGxrTXW1KOzxt2sdjuqSd6XzRUlpaO2e3Ei179739R0P7eiEZmC00rtq71mcaZJeaCwqW3BDI0Gg1pNpty8eLFOITkkeeee07efvttefLJJ+MQknfcrK+vMEWYnX75y1+W119/XT7zmc+EYW4h6Ss0BxQrhJAc4i0Ldt+Qc99+Xq6+Mt9xstSsw6VTX5nh2x8hJN/s7OzIm2++KdeuXYtD+sNHp4TMKHAoYOpY6JNQPNWB2fU6dR0OXaZwIWT2QN73Gfjeuzdl7j8Ue8oWlCtqil224YQQ0g8KGUJmAJ+D4QIHA10+sKy4y759ZTkGISQ/+MoAl/++96z8xy8l38a0X5HCsoUQ4kIhQ8iMkcUZUEfDOh1qcESs0PE5JHQ2CJkNbPmA8gJlBOaX3nqr8/YwNcRX07IClgXdhhBCLBQyhMwA1nkYxhlAfDggOoWQgbNiRQ2MEJJ/NN/bMsCWDTANJ4SQccEShhDSwT4hdZ+UQqRY5wWOihqFDCGzBcoBX3kA61cesMwghByUgW8t07cGfOc735Ff+7Vfi0NIHvnzP/9z+dVf/VX5+Mc/HocQEvE3f/M38swzz8gnP/nJOKQXFCN26oYRQvaHOvpHmY8gNFzBMUioEELIsPzzP/+z7O7uyltvvRWH9GegkPnLv/xL+eu//mv5xV/8xTiE5BF9f/+HH34YLxHS5YknnghfzTxM+tBiRb/wD3TZFjWYH4UThH0MKMoImUo0fashffdL5+PICypWFJwH5gkhZByor/GjH/1Ifud3ficO6c9AIUMIIcOiIsY6XjAsAzsP3DA4UBrez4Hy7YuQPGDTfVr+QT7xgXi63j5gAO52ugwBo6DlBfHc+IQQclRQyBBCxgqKGJ3a4kbnXcEDbFzXqbLYbQjJK1Y4uGne5hOLT2xoXAgZrPdNNb9BvAA7TwghkwKFDCHk0EBxgymcKhvuzqsDBScK64BdpqNFZhk3b6SJECtkYHZZgZAhhJBJh0KGEHIk2KJH52F2GfOg3zwdLzLL2PwArEgBbphOrQE7b7HHSYtDCCGHBYUMIWQiQFGkU1ss6byv5QZgnk4VmWV8+QDzdmoFv299P2y+UwbFJ4SQcTPCR5hbshoUalqwndrYjcNitlbD8LlTG+KsIYTMGOoMwSxhGREYurVYs9+qsOE2PiF5xZdfFOQZmw/cPOT7totr2Ec/fMcnhJCjZiy1f7O6Hsia0bC1Oiero9oZIeRQgONlDcBp6uc42TjqaOFje7BHH320M2+dMULyjM1HLsgHyBPIH67ZvDUMdrv9bE8IIeNgTI8xa1I+sPrYlY1Tc1KuxYuEkKlhHE4P9gOHzTpuaoTMMpo3NB/YPKHzyDdqhBCSN8YgZEpSKgWT2kVxe5i5aGuLLWS7XdJUxBSl2oyWauVgfadbWiRwutut9rT+uPt1u7RhPVt6CJleNA9bR00/6nrs2LGO6TJMW3BgiK8GbMuRfSW0YuNbU+x2BzXFdxxrim9b18j4SLvPvt8Lptjt1DSdwWy4YrdVQWLTtTWbxjWexkeeIISQWWAMQmZBLl1aCaZNqb6UNibG39rSrBZlrq+6SAqciJqUjZhRkdLTitOsSpGqhZBcAodPHbhBBscQT6sR5poCp9I6ma5ZfPsZxhTfMawpvm1dI0l899I1xXcvrblx3GUbDtx9AyzbNIg0CbPpdJBhH4QQMkuMp2vZ0nVphFqmKus+/bC1HouRkqy344qkvR4sBYQtOQVZ22nLehggstII1u+sSQHbldalHVc+7TBSTS46zT/hNnGc0K4vxWv09KIwE0QIyTFw8KyzCEHjmrbawDG0JMqTwBQ4j25cxcbLgt13PyPjwfcbumSJ0w/d3ooOX/qzhrRKCCHEz9hKyKVqJExq5d6uX7vvtcJpaf2GrBXCWZHCmoQNOdKU+u2Udpx4u7CFJa4IinHzTLN9P5wuvRDuJOqOFsdhYwwhs4fmfQvKAziHammOoy8Mhv34TKH4mDx8v5VrWfD9rm4YwhXdr5t2dOqmL3fZmj23rOdJCCGzwvge9QTC5EbcWlI+zBH7S9ejyiRsEopIjrEhhMwK6vi55qJhrvOorTJ2/IEdY6MGpzNtn2mObT+wr0Hm7ttnJInvPrrmu4+uKe48QLia7s9NU1aswNw4OBeXtHBCCJl1xtpmXVi70ekeZimcXAinzepL3RcC7G7IxVDvlKRyVptpChJH64DtbNeyjrn9xCBoHjYkauipS0pDDyGEhPgcRl1Oc0StwRn1hY+KRJk3wMh4sL+rnVpzw6z41XUwChRCCDkYY+58W5C1qL9YkqVqLHCaUi1GBflcsRosBaxc6nY3i+m0qGA707UMFnUfc99oplaWSB9VJNRHAXxrGSHEJasIsOULHFI4q2i9sS05us5uk2aKPQefKb5tXSNJfPfSNd99dE1/a/1NBxkEC7ZLwx5/vxx0e0IImWbGLGQCMPA/gQ7mf9gTXlpvJwflx+NdQpptuR9u130JANCB/dFm/v0GMaShLwuIlwghs4t1Hq0DaB3WQdi4rkHcQOBkNbtdP/Md02eki+/+uKb31ve7WHN/C5hvf1nwxU9Lnz4GrSeEkLwzFxSELAkJITODW+RldTr3S9Yi1v1+TRoabxC6HxbtEfr7qggZhAqSrPjSzKjS0TDp08YddzomhJBJhEKGEEL2SVrxOS6nUo/305/+NF5KR+OlndswRf4wcbPg3hfsfz/3K+s2aDUZRJY4affVPZd+52a33891W0a5L0IImUYoZAghJOegmHeLexVFPgdY48GUUTrJ2Jd7LhoO862zUzBMKwohhJD8QSFDCCGEEEIImTr4OIsQQgghhBAydVDIEEIIIYQQQqYOChlCCCGEEELI1DE2IbO7cUrmDuWLk9FHME9tZPls/5asmgGloSXOMVrfu6/4Q5v6Uc44BIQf19zPde5uyCnvsUD6MQkhhBBCCJl1xiJkVMQUq+F3+ieHrdVAuJSlpR/djN/Go9aQchC+GkgYZUn0G5zN9v1wqcPubalLSUrNutxOqIotuVUTWXmh+xHPwcTC6/ZZuaTHqt/2CxU9ZnALVy7xQ56EEEIIIYS4jFjIRE56sSpScr6+f7RsyWq5JiuNh7KzlpQFS9cDMbNSk3Lc8nGiGJx4672EuNi9XRepXJJKqSl1q2R235NWIHCKJ+LlfsQtMHNzRWlfis5jKVRNVVn3NOjoMZuyIkNpJEIIIYQQQmaE0QqZrXUJ3HJpP9yRSwtx2ASwu3FRaqXg3FJEwVJ1vdPaUjhbcVpeduV2vSkLJ5fkbKWUaK0JxUapImf7NJmEXexUwBTbciluBbqO81gK7lagm2q3XCWzJevVppTWq0IdQwghhBBCSC+jFTJL1+XhzuR1hbrfbkqgRNLPq3C229pSOCkL0pSOXgm7eEUtI4WTgTqr3Yq7oQ3er46fKbYvxd3YrntESSEUR3afIVu3pCYlqfRTSIQQQgghhMwwYxvsP2mUMvX/UqJxMq334iaZ+21prrwQiZClF2QlkBhRA8rg8THaba1dvBi1yHTG4SQprF0K93nRDPrfCnd8SZxecIQQQgghhJCYmREyPQP4+6BjVzAIX0VFV6wYkROOjxk8hqWwthO1yLSLcjEUNHOSfMlZ/IKBzqB/j0DS8TXxRtpV7VBeBkcIIYQQQsgEMxNCxjeAP0HYfcx05TpRlFKzLfdDUZEczK/7CkWHttSUipK1nSdQNLITdjFrS/Fi8rXLdozOoPE8hBBCCCGEkBkRMmH3rZS3gylb69XkoP1wzExNbm28Jy1nMH/0MoC2rN+qSalydh/jgQqytuO8Pa0zRmcrfLHA/vZLCCGEEELI7DAjXcuW5HpjRWrl3g9Q6oD8cm1FGomXFBQkHNdfrYq4oiJ8GUBNajUd599fboQfy4y7k7mW7B4WiJtLK9KslqVqW4YIIYQQQgghXg5XyITfUjklqR+zPwDNarFXMNiv4usb1R62pVJPxitLw/tGsfAbL943h0VjWiTD+Bgd7I8Pb7rWeQUzCF8kELDPQf6haOLgGUIIIYQQMiPMBU71w3ieTCoqANdPyk6gfnSw//rJnV4hRAghhBBCyAwxM28tyxPaRa7bquR/rTMhhBBCCCF5hi0yhBBCCCGEkKmDLTKEEEIIIYSQqYNChhBCCCGEEDJ1UMgQQgghhBBCpo4RC5ktWTWvNj6cgei7snGq9/swIPla4j5xw1dD23O328X0fX10dO37egNyfOy0a8B5J14nTQghhBBCyAwzQiGjjnxZWuvtzrdS2ustKU/BW7VCsVOsS6Vtv/XSlvVWeWRiTI+RKlQKa3JpRaRZv+0XKru3pd7UT8zYj3YSQgghhBAyu4xOyGzdkpqsyCXzNcfC2qUgpCa3JlnJbK1KuVaS9faO8yHKgqztBGKmVJOLqS0l2dGPY96Ql6KWHk/LSvgBzmZV1j33avd2XZoZPsBJCCGEEELIrDA6IRN+Ob/3C/mTztatWp+v6auYeSg7+/nUvofC2k7U2nND5KWw+5rpprYUiJiSSK1H9W3JerUppfXq1N1bQgghhBBCxsV4B/uHrTQlKZ6IlyeOLQl1zGE3dRTWZCfsvnZJ2kWMqynI2UqoZJJd2eJ7WDnLTmWEEEIIIYSA8QkZHcBeDlzw9RsprR2jpVktdgfpGwtOYUjigfV2P4muYE2pBuIjsT60ciA4MtJ5scBFKbYfyvVYR6Ernu3K1r/FiBBCCCGEkNlkPEJGHfViVZorjZF1yxpEybxkwFpjJY6Qmag7GbZva3+vBDqeJnmMyBqBCOnP7sapSPS8JHIj3MYdl7Mk4VCZzqB/T4uR3tv41Wi6v+Rb0lSEpb1VjRBCCCGEkPwweiFjRMxDNDVMLJFw6B2XMnr0rWUvyY1I9Oykv31sqboupWZdbgdiZHfjotRK61Ll4BhCCCGEEEISjFbIxCJGtHVk4kVMRPi2sNrFsbdi6FvLMrVOFc5KpdSU+u0tuV1vSqlyNlX0EEIIIYQQMquMUMhsyWosYg6rO9lIWLou7XUJx730dtOak2K1OZLvt4TfqkmMqela8rgFWbu0Is1qWarNwYP8a2W7r2KwTbyCEEIIIYSQHDMyIRN2gwqmvkH3nQ9BhoPcJ28MR/ha5EDNtFxRsNAIu4KNonFJW2SSY2q61rP/pRei8TYZBvmvNOy+9Ls38YpYiKV+hJMQQgghhJApZi5wgB/G82QaUDG4flJ2AvWjg/3XT+4YIaTiRd8k4L5EgBBCCCGEkHwxnreWEUIIIYQQQsgYYYsMIYQQQgghZOpgiwwhhBBCCCFk6qCQIYQQQgghhEwdFDKEEEIIIYSQqWPkQibxvZRTGzL2l/9urUbHSn6MJSJe51vlJXw9tDn/jo3jldGe1yPvbslWhuPo28qS57cqWS+REEIIIYSQPDBSIaMiptxal3b8XZPGQlWKmVXEPlm6Lg8b+nX+siNYtmS1XJPSenvI78CUZL1tv80SWGPB88HMgxJ9+HLhZPyeZBVRxYvyXrSUQnBNgXAp1iude6zWXm9JeQK/z0MIIYQQQsi4GKGQ2ZJbtUAE3Oh+BX+pui6l2q3xtxYEYibSMmiZ0NaOstRK63JjFB9UCb/+XzL7Hw2777XiuWxsrUbX1N7p3mNFP+jZWGlK9aVDaAEjhBBCCCFkAhihkFmS6w99H2JsyXuH4F0vXW/IitSkvLoluxsvSbW5Ig3r8KMLms8yNLUU1i6F+79lo7pd0ex+wnWnZGMrGacbZUvW6xWpamtR2BpTlWbwpy0//q/xq1DUj/0nRQxYuv5QHg643u5+o25tqxs4t25rjtttbbStUIQQQgghhIyGMQ72D5zllwLnfOXSIX1lPhBScRezYrUpK43rQYhBu6CZ7lgJy9T37IQUS4EsgypToRCIj4UG9hMIqeDYSVEUCJOLIjfi4yRbdYLzhfAorMlOe11Kcbe2Hd8N230vkIQlKZ6Il/uhwqjcSnSR02M3qy8lup/Vqm25FK6PBKh2DUx0WwvOqVWmmCGEEEIIIZPHWIRMNOC/KNVm4JiHTQ6HxNILEkiZgBV5YcyH3QqbRxpm/A2EVLIrnW1BKZytBFLkIC1UC4IhNX1RYeS0jkXHdlh5wYi93q6Bup8bKr4usssaIYQQQgiZLMYiZMJuTuET/YrURz5IPp1oDIm2a0RdzMbHrujwlpLbPBIKKStUMragZGZYERS9HCDsJhZ2XUuSOP+wxSfq2ma7lmnrFiGEEEIIIZPGGLuWBRTW5FLYSDF+JaNjO8phi8KO7MRdzBJjTQ44RkbkvrSbJamc7dMkEoqBMVE4KQuB0Gjfj5ddwjE5cbe1ztidsrTW251uYj0tMpb77WDvUdc2dEfrmPNyAUIIIYQQQo6a0QkZDG4/ij5IwbFfqgZu+PqNqDtV/BazxJiQA46R2d24KLVSRSIdU5CTC8H+XVURioGM3b+GZkmqfbp5ba1XpVkqirax7N6uB/PRa7A7423Cc+vDiWIgY/oIJUIIIYQQQiaI0QmZwlmplJxXAG+tRq0kYx0nE79UwHnVcvQWsxG9kji4jvAFAma8y9ILUatPtzEn+m5NctzJEAxqcQkI35zWrErR+dBotzXKtJw029LZVTj4Pzi3fqD1LPGK6ejtZtlarAghhBBCCDk8Rti1rCBrO21Zl8DRRpet8M1ZZtD5yFtt1NHWlwo4r1oOiQffq+M/lCPeO04kuo6HyQ9ragtP/FavKF5ZaiuNjG9A87EkkTYK9pV6vvqK6/hDo+b8itUFaZjB/dF3ZWpSRpxiXSrtSNjVb6fffB3blNhOX9iwYK8pGnNDXUMIIYQQQo6auYfat4oQQgghhBBCpojxDvYnhBBCCCGEkDFAIUMIIYQQQgiZOihkCCGEEEIIIVMHhQwhhBBCCCFk6qCQIYQQQgghhEwdFDKEEEIIIYSQqYNChhBCCCGEEDJ1UMgQQgghhBBCpg4KGUIIIYQQQsjUQSFDCCGEEEIImTooZAghhBBCCCFTB4UMIYQQQgghZOqgkCGEEEIIIYRMHRQyhBBCCCGEkKmDQoYQQgghhBAydVDIEEIIIYQQQqYOChlCCCGEEELI1EEhQwghhBBCCJk6KGQIIYQQQgghU4bI/w8dv9VsYviRBQAAAABJRU5ErkJggg==;" parent="1" vertex="1">
                    <mxGeometry x="269.74" y="410" width="430.53" height="120" as="geometry"/>
                </mxCell>
                <mxCell id="9LKrxXZM_Z7M-zY_0OCU-4" style="edgeStyle=orthogonalEdgeStyle;rounded=0;orthogonalLoop=1;jettySize=auto;html=1;exitX=1;exitY=0.75;exitDx=0;exitDy=0;entryX=0;entryY=0.5;entryDx=0;entryDy=0;endArrow=none;endFill=0;" parent="1" source="9LKrxXZM_Z7M-zY_0OCU-1" target="9LKrxXZM_Z7M-zY_0OCU-2" edge="1">
                    <mxGeometry relative="1" as="geometry"/>
                </mxCell>
                <mxCell id="9LKrxXZM_Z7M-zY_0OCU-5" value="UUSB2" style="edgeLabel;html=1;align=center;verticalAlign=middle;resizable=0;points=[];" parent="9LKrxXZM_Z7M-zY_0OCU-4" vertex="1" connectable="0">
                    <mxGeometry x="0.1" y="-1" relative="1" as="geometry">
                        <mxPoint as="offset"/>
                    </mxGeometry>
                </mxCell>
                <mxCell id="9LKrxXZM_Z7M-zY_0OCU-1" value="ESP32-S3" style="rounded=0;whiteSpace=wrap;html=1;" parent="1" vertex="1">
                    <mxGeometry x="90" y="450" width="120" height="200" as="geometry"/>
                </mxCell>
                <mxCell id="9LKrxXZM_Z7M-zY_0OCU-7" value="" style="edgeStyle=orthogonalEdgeStyle;rounded=0;orthogonalLoop=1;jettySize=auto;html=1;endArrow=none;endFill=0;entryX=0.025;entryY=0.69;entryDx=0;entryDy=0;entryPerimeter=0;" parent="1" source="9LKrxXZM_Z7M-zY_0OCU-2" target="9LKrxXZM_Z7M-zY_0OCU-6" edge="1">
                    <mxGeometry relative="1" as="geometry"/>
                </mxCell>
                <mxCell id="9LKrxXZM_Z7M-zY_0OCU-10" value="USB2" style="edgeLabel;html=1;align=center;verticalAlign=middle;resizable=0;points=[];" parent="9LKrxXZM_Z7M-zY_0OCU-7" vertex="1" connectable="0">
                    <mxGeometry x="0.2" y="-1" relative="1" as="geometry">
                        <mxPoint as="offset"/>
                    </mxGeometry>
                </mxCell>
                <mxCell id="9LKrxXZM_Z7M-zY_0OCU-2" value="0R" style="rounded=0;whiteSpace=wrap;html=1;" parent="1" vertex="1">
                    <mxGeometry x="280" y="592.5" width="40" height="15" as="geometry"/>
                </mxCell>
                <mxCell id="9LKrxXZM_Z7M-zY_0OCU-3" value="UART0" style="text;html=1;align=center;verticalAlign=middle;resizable=0;points=[];autosize=1;strokeColor=none;fillColor=none;" parent="1" vertex="1">
                    <mxGeometry x="160" y="585" width="60" height="30" as="geometry"/>
                </mxCell>
                <mxCell id="9LKrxXZM_Z7M-zY_0OCU-32" value="" style="edgeStyle=orthogonalEdgeStyle;rounded=0;orthogonalLoop=1;jettySize=auto;html=1;endArrow=none;endFill=0;exitX=0;exitY=0.25;exitDx=0;exitDy=0;" parent="1" source="9LKrxXZM_Z7M-zY_0OCU-6" target="9LKrxXZM_Z7M-zY_0OCU-31" edge="1">
                    <mxGeometry relative="1" as="geometry"/>
                </mxCell>
                <mxCell id="9LKrxXZM_Z7M-zY_0OCU-33" value="USB3" style="edgeLabel;html=1;align=center;verticalAlign=middle;resizable=0;points=[];" parent="9LKrxXZM_Z7M-zY_0OCU-32" vertex="1" connectable="0">
                    <mxGeometry x="-0.472" relative="1" as="geometry">
                        <mxPoint as="offset"/>
                    </mxGeometry>
                </mxCell>
                <mxCell id="9LKrxXZM_Z7M-zY_0OCU-6" value="FSUSB42UMX" style="whiteSpace=wrap;html=1;rounded=0;" parent="1" vertex="1">
                    <mxGeometry x="390" y="517.5" width="120" height="122.5" as="geometry"/>
                </mxCell>
                <mxCell id="9LKrxXZM_Z7M-zY_0OCU-9" value="HSD1" style="text;html=1;align=center;verticalAlign=middle;resizable=0;points=[];autosize=1;strokeColor=none;fillColor=none;" parent="1" vertex="1">
                    <mxGeometry x="383.5" y="585" width="60" height="30" as="geometry"/>
                </mxCell>
                <mxCell id="9LKrxXZM_Z7M-zY_0OCU-27" value="" style="edgeStyle=orthogonalEdgeStyle;rounded=0;orthogonalLoop=1;jettySize=auto;html=1;endArrow=none;endFill=0;" parent="1" source="9LKrxXZM_Z7M-zY_0OCU-11" target="9LKrxXZM_Z7M-zY_0OCU-29" edge="1">
                    <mxGeometry relative="1" as="geometry"/>
                </mxCell>
                <mxCell id="9LKrxXZM_Z7M-zY_0OCU-28" value="USB" style="edgeLabel;html=1;align=center;verticalAlign=middle;resizable=0;points=[];" parent="9LKrxXZM_Z7M-zY_0OCU-27" vertex="1" connectable="0">
                    <mxGeometry x="-0.1091" y="1" relative="1" as="geometry">
                        <mxPoint as="offset"/>
                    </mxGeometry>
                </mxCell>
                <mxCell id="9LKrxXZM_Z7M-zY_0OCU-11" value="D+/-" style="text;html=1;align=center;verticalAlign=middle;resizable=0;points=[];autosize=1;strokeColor=none;fillColor=none;" parent="1" vertex="1">
                    <mxGeometry x="460" y="585" width="50" height="30" as="geometry"/>
                </mxCell>
                <mxCell id="9LKrxXZM_Z7M-zY_0OCU-12" value="HSD2" style="text;html=1;align=center;verticalAlign=middle;resizable=0;points=[];autosize=1;strokeColor=none;fillColor=none;" parent="1" vertex="1">
                    <mxGeometry x="380" y="535" width="60" height="30" as="geometry"/>
                </mxCell>
                <mxCell id="9LKrxXZM_Z7M-zY_0OCU-17" value="" style="edgeStyle=orthogonalEdgeStyle;rounded=0;orthogonalLoop=1;jettySize=auto;html=1;endArrow=none;endFill=0;entryX=0.825;entryY=0.067;entryDx=0;entryDy=0;entryPerimeter=0;" parent="1" source="9LKrxXZM_Z7M-zY_0OCU-15" target="9LKrxXZM_Z7M-zY_0OCU-16" edge="1">
                    <mxGeometry relative="1" as="geometry"/>
                </mxCell>
                <mxCell id="9LKrxXZM_Z7M-zY_0OCU-18" value="USB_SET" style="edgeLabel;html=1;align=center;verticalAlign=middle;resizable=0;points=[];" parent="9LKrxXZM_Z7M-zY_0OCU-17" vertex="1" connectable="0">
                    <mxGeometry x="-0.1077" relative="1" as="geometry">
                        <mxPoint as="offset"/>
                    </mxGeometry>
                </mxCell>
                <mxCell id="9LKrxXZM_Z7M-zY_0OCU-15" value="SEL" style="text;html=1;align=center;verticalAlign=middle;resizable=0;points=[];autosize=1;strokeColor=none;fillColor=none;" parent="1" vertex="1">
                    <mxGeometry x="425" y="615" width="50" height="30" as="geometry"/>
                </mxCell>
                <mxCell id="9LKrxXZM_Z7M-zY_0OCU-16" value="" style="whiteSpace=wrap;html=1;" parent="1" vertex="1">
                    <mxGeometry x="350" y="720" width="120" height="60" as="geometry"/>
                </mxCell>
                <mxCell id="9LKrxXZM_Z7M-zY_0OCU-19" value="1&amp;nbsp; &amp;nbsp; 2&amp;nbsp; &amp;nbsp; 3&amp;nbsp; &amp;nbsp; 4&lt;div&gt;dip sw&lt;/div&gt;" style="text;html=1;align=center;verticalAlign=middle;resizable=0;points=[];autosize=1;strokeColor=none;fillColor=none;" parent="1" vertex="1">
                    <mxGeometry x="370" y="725" width="90" height="40" as="geometry"/>
                </mxCell>
                <mxCell id="9LKrxXZM_Z7M-zY_0OCU-21" value="" style="pointerEvents=1;verticalLabelPosition=bottom;shadow=0;dashed=0;align=center;html=1;verticalAlign=top;shape=mxgraph.electrical.signal_sources.protective_earth;" parent="1" vertex="1">
                    <mxGeometry x="425" y="780" width="25" height="20" as="geometry"/>
                </mxCell>
                <mxCell id="9LKrxXZM_Z7M-zY_0OCU-24" value="" style="pointerEvents=1;verticalLabelPosition=bottom;shadow=0;dashed=0;align=center;html=1;verticalAlign=top;shape=mxgraph.electrical.signal_sources.protective_earth;" parent="1" vertex="1">
                    <mxGeometry x="397.5" y="640" width="25" height="20" as="geometry"/>
                </mxCell>
                <mxCell id="9LKrxXZM_Z7M-zY_0OCU-25" value="/OE" style="text;html=1;align=center;verticalAlign=middle;resizable=0;points=[];autosize=1;strokeColor=none;fillColor=none;" parent="1" vertex="1">
                    <mxGeometry x="390" y="615" width="40" height="30" as="geometry"/>
                </mxCell>
                <mxCell id="9LKrxXZM_Z7M-zY_0OCU-26" value="A7670" style="whiteSpace=wrap;html=1;" parent="1" vertex="1">
                    <mxGeometry x="620" y="505" width="120" height="290" as="geometry"/>
                </mxCell>
                <mxCell id="9LKrxXZM_Z7M-zY_0OCU-29" value="USB_D" style="text;html=1;align=center;verticalAlign=middle;resizable=0;points=[];autosize=1;strokeColor=none;fillColor=none;" parent="1" vertex="1">
                    <mxGeometry x="620" y="585" width="60" height="30" as="geometry"/>
                </mxCell>
                <mxCell id="9LKrxXZM_Z7M-zY_0OCU-37" style="edgeStyle=orthogonalEdgeStyle;rounded=0;orthogonalLoop=1;jettySize=auto;html=1;entryX=1;entryY=0.5;entryDx=0;entryDy=0;endArrow=none;endFill=0;" parent="1" target="9LKrxXZM_Z7M-zY_0OCU-36" edge="1">
                    <mxGeometry relative="1" as="geometry">
                        <mxPoint x="250" y="213.75" as="sourcePoint"/>
                        <Array as="points">
                            <mxPoint x="250" y="171"/>
                        </Array>
                    </mxGeometry>
                </mxCell>
                <mxCell id="9LKrxXZM_Z7M-zY_0OCU-38" value="DU" style="edgeLabel;html=1;align=center;verticalAlign=middle;resizable=0;points=[];" parent="9LKrxXZM_Z7M-zY_0OCU-37" vertex="1" connectable="0">
                    <mxGeometry x="-0.168" y="-2" relative="1" as="geometry">
                        <mxPoint as="offset"/>
                    </mxGeometry>
                </mxCell>
                <mxCell id="9LKrxXZM_Z7M-zY_0OCU-31" value="CH33F HUB" style="rounded=0;whiteSpace=wrap;html=1;" parent="1" vertex="1">
                    <mxGeometry x="190" y="210" width="120" height="130" as="geometry"/>
                </mxCell>
                <mxCell id="9LKrxXZM_Z7M-zY_0OCU-34" value="DP/M3" style="text;html=1;align=center;verticalAlign=middle;resizable=0;points=[];autosize=1;strokeColor=none;fillColor=none;" parent="1" vertex="1">
                    <mxGeometry x="220" y="320" width="60" height="30" as="geometry"/>
                </mxCell>
                <mxCell id="9LKrxXZM_Z7M-zY_0OCU-35" value="DP/MU" style="text;html=1;align=center;verticalAlign=middle;resizable=0;points=[];autosize=1;strokeColor=none;fillColor=none;" parent="1" vertex="1">
                    <mxGeometry x="220" y="213.75" width="60" height="30" as="geometry"/>
                </mxCell>
                <mxCell id="9LKrxXZM_Z7M-zY_0OCU-40" value="" style="edgeStyle=orthogonalEdgeStyle;rounded=0;orthogonalLoop=1;jettySize=auto;html=1;endArrow=none;endFill=0;" parent="1" source="9LKrxXZM_Z7M-zY_0OCU-36" target="9LKrxXZM_Z7M-zY_0OCU-39" edge="1">
                    <mxGeometry relative="1" as="geometry"/>
                </mxCell>
                <mxCell id="9LKrxXZM_Z7M-zY_0OCU-41" value="D" style="edgeLabel;html=1;align=center;verticalAlign=middle;resizable=0;points=[];" parent="9LKrxXZM_Z7M-zY_0OCU-40" vertex="1" connectable="0">
                    <mxGeometry x="-0.3516" relative="1" as="geometry">
                        <mxPoint as="offset"/>
                    </mxGeometry>
                </mxCell>
                <mxCell id="9LKrxXZM_Z7M-zY_0OCU-36" value="0R" style="rounded=0;whiteSpace=wrap;html=1;" parent="1" vertex="1">
                    <mxGeometry x="190" y="163.75" width="40" height="15" as="geometry"/>
                </mxCell>
                <mxCell id="9LKrxXZM_Z7M-zY_0OCU-39" value="H3&lt;div&gt;USBC&lt;/div&gt;" style="whiteSpace=wrap;html=1;rounded=0;" parent="1" vertex="1">
                    <mxGeometry x="100" y="110" width="50" height="122.5" as="geometry"/>
                </mxCell>
                <mxCell id="9LKrxXZM_Z7M-zY_0OCU-42" value="DP/M4" style="text;html=1;align=center;verticalAlign=middle;resizable=0;points=[];autosize=1;strokeColor=none;fillColor=none;" parent="1" vertex="1">
                    <mxGeometry x="260" y="300" width="60" height="30" as="geometry"/>
                </mxCell>
                <mxCell id="9LKrxXZM_Z7M-zY_0OCU-43" value="DP/M2" style="text;html=1;align=center;verticalAlign=middle;resizable=0;points=[];autosize=1;strokeColor=none;fillColor=none;" parent="1" vertex="1">
                    <mxGeometry x="260" y="280" width="60" height="30" as="geometry"/>
                </mxCell>
                <mxCell id="9LKrxXZM_Z7M-zY_0OCU-44" value="DP/M1" style="text;html=1;align=center;verticalAlign=middle;resizable=0;points=[];autosize=1;strokeColor=none;fillColor=none;" parent="1" vertex="1">
                    <mxGeometry x="260" y="232.5" width="60" height="30" as="geometry"/>
                </mxCell>
                <mxCell id="2" value="DIP switch Truth Table&amp;nbsp;" style="text;html=1;align=center;verticalAlign=middle;resizable=0;points=[];autosize=1;strokeColor=none;fillColor=none;" vertex="1" parent="1">
                    <mxGeometry x="7" y="870" width="150" height="30" as="geometry"/>
                </mxCell>
                <mxCell id="3" value="" style="shape=table;html=1;whiteSpace=wrap;startSize=0;container=1;collapsible=0;childLayout=tableLayout;movable=1;resizable=1;rotatable=1;deletable=1;editable=1;connectable=1;enumerate=0;rowLines=1;metaEdit=0;" vertex="1" parent="1">
                    <mxGeometry x="7" y="910" width="703" height="720" as="geometry"/>
                </mxCell>
                <mxCell id="4" value="" style="shape=tableRow;horizontal=0;startSize=0;swimlaneHead=0;swimlaneBody=0;top=0;left=0;bottom=0;right=0;collapsible=0;dropTarget=0;fillColor=none;points=[[0,0.5],[1,0.5]];portConstraint=eastwest;movable=1;resizable=1;rotatable=1;deletable=1;editable=1;connectable=1;fontColor=#333333;strokeColor=#666666;swimlaneFillColor=none;labelBackgroundColor=none;" vertex="1" parent="3">
                    <mxGeometry width="703" height="40" as="geometry"/>
                </mxCell>
                <mxCell id="5" value="1 CAM" style="shape=partialRectangle;html=1;whiteSpace=wrap;connectable=1;fillColor=none;top=0;left=0;bottom=0;right=0;overflow=hidden;movable=1;resizable=1;rotatable=1;deletable=1;editable=1;fontColor=#333333;strokeColor=#666666;swimlaneFillColor=none;labelBackgroundColor=none;" vertex="1" parent="4">
                    <mxGeometry width="60" height="40" as="geometry">
                        <mxRectangle width="60" height="40" as="alternateBounds"/>
                    </mxGeometry>
                </mxCell>
                <mxCell id="6" value="2 HUB" style="shape=partialRectangle;html=1;whiteSpace=wrap;connectable=1;fillColor=none;top=0;left=0;bottom=0;right=0;overflow=hidden;movable=1;resizable=1;rotatable=1;deletable=1;editable=1;fontColor=#333333;strokeColor=#666666;swimlaneFillColor=none;labelBackgroundColor=none;" vertex="1" parent="4">
                    <mxGeometry x="60" width="60" height="40" as="geometry">
                        <mxRectangle width="60" height="40" as="alternateBounds"/>
                    </mxGeometry>
                </mxCell>
                <mxCell id="7" value="3 4G" style="shape=partialRectangle;html=1;whiteSpace=wrap;connectable=1;fillColor=none;top=0;left=0;bottom=0;right=0;overflow=hidden;movable=1;resizable=1;rotatable=1;deletable=1;editable=1;fontColor=#333333;strokeColor=#666666;swimlaneFillColor=none;labelBackgroundColor=none;" vertex="1" parent="4">
                    <mxGeometry x="120" width="60" height="40" as="geometry">
                        <mxRectangle width="60" height="40" as="alternateBounds"/>
                    </mxGeometry>
                </mxCell>
                <mxCell id="188" value="4 USB" style="shape=partialRectangle;html=1;whiteSpace=wrap;connectable=1;fillColor=none;top=0;left=0;bottom=0;right=0;overflow=hidden;movable=1;resizable=1;rotatable=1;deletable=1;editable=1;fontColor=#333333;strokeColor=#666666;swimlaneFillColor=none;labelBackgroundColor=none;" vertex="1" parent="4">
                    <mxGeometry x="180" width="63" height="40" as="geometry">
                        <mxRectangle width="63" height="40" as="alternateBounds"/>
                    </mxGeometry>
                </mxCell>
                <mxCell id="206" value="Notes -&amp;nbsp;GNSS-With-WaveshareCloud" style="shape=partialRectangle;html=1;whiteSpace=wrap;connectable=1;fillColor=none;top=0;left=0;bottom=0;right=0;overflow=hidden;movable=1;resizable=1;rotatable=1;deletable=1;editable=1;fontColor=#333333;strokeColor=#666666;swimlaneFillColor=none;labelBackgroundColor=none;" vertex="1" parent="4">
                    <mxGeometry x="243" width="230" height="40" as="geometry">
                        <mxRectangle width="230" height="40" as="alternateBounds"/>
                    </mxGeometry>
                </mxCell>
                <mxCell id="235" value="Notes - flash Wifi AP binary" style="shape=partialRectangle;html=1;whiteSpace=wrap;connectable=1;fillColor=none;top=0;left=0;bottom=0;right=0;overflow=hidden;movable=1;resizable=1;rotatable=1;deletable=1;editable=1;fontColor=#333333;strokeColor=#666666;swimlaneFillColor=none;labelBackgroundColor=none;" vertex="1" parent="4">
                    <mxGeometry x="473" width="230" height="40" as="geometry">
                        <mxRectangle width="230" height="40" as="alternateBounds"/>
                    </mxGeometry>
                </mxCell>
                <mxCell id="229" value="" style="shape=tableRow;horizontal=0;startSize=0;swimlaneHead=0;swimlaneBody=0;top=0;left=0;bottom=0;right=0;collapsible=0;dropTarget=0;fillColor=none;points=[[0,0.5],[1,0.5]];portConstraint=eastwest;movable=1;resizable=1;rotatable=1;deletable=1;editable=1;connectable=1;fontColor=#333333;strokeColor=#666666;swimlaneFillColor=none;labelBackgroundColor=none;" vertex="1" parent="3">
                    <mxGeometry y="40" width="703" height="40" as="geometry"/>
                </mxCell>
                <mxCell id="230" value="1 CAM" style="shape=partialRectangle;html=1;whiteSpace=wrap;connectable=1;fillColor=none;top=0;left=0;bottom=0;right=0;overflow=hidden;movable=1;resizable=1;rotatable=1;deletable=1;editable=1;fontColor=#333333;strokeColor=#666666;swimlaneFillColor=none;labelBackgroundColor=none;" vertex="1" parent="229">
                    <mxGeometry width="60" height="40" as="geometry">
                        <mxRectangle width="60" height="40" as="alternateBounds"/>
                    </mxGeometry>
                </mxCell>
                <mxCell id="231" value="2 HUB" style="shape=partialRectangle;html=1;whiteSpace=wrap;connectable=1;fillColor=none;top=0;left=0;bottom=0;right=0;overflow=hidden;movable=1;resizable=1;rotatable=1;deletable=1;editable=1;fontColor=#333333;strokeColor=#666666;swimlaneFillColor=none;labelBackgroundColor=none;" vertex="1" parent="229">
                    <mxGeometry x="60" width="60" height="40" as="geometry">
                        <mxRectangle width="60" height="40" as="alternateBounds"/>
                    </mxGeometry>
                </mxCell>
                <mxCell id="232" value="3 4G" style="shape=partialRectangle;html=1;whiteSpace=wrap;connectable=1;fillColor=none;top=0;left=0;bottom=0;right=0;overflow=hidden;movable=1;resizable=1;rotatable=1;deletable=1;editable=1;fontColor=#333333;strokeColor=#666666;swimlaneFillColor=none;labelBackgroundColor=none;" vertex="1" parent="229">
                    <mxGeometry x="120" width="60" height="40" as="geometry">
                        <mxRectangle width="60" height="40" as="alternateBounds"/>
                    </mxGeometry>
                </mxCell>
                <mxCell id="233" value="4 USB" style="shape=partialRectangle;html=1;whiteSpace=wrap;connectable=1;fillColor=none;top=0;left=0;bottom=0;right=0;overflow=hidden;movable=1;resizable=1;rotatable=1;deletable=1;editable=1;fontColor=#333333;strokeColor=#666666;swimlaneFillColor=none;labelBackgroundColor=none;" vertex="1" parent="229">
                    <mxGeometry x="180" width="63" height="40" as="geometry">
                        <mxRectangle width="63" height="40" as="alternateBounds"/>
                    </mxGeometry>
                </mxCell>
                <mxCell id="234" value="Notes" style="shape=partialRectangle;html=1;whiteSpace=wrap;connectable=1;fillColor=none;top=0;left=0;bottom=0;right=0;overflow=hidden;movable=1;resizable=1;rotatable=1;deletable=1;editable=1;fontColor=#333333;strokeColor=#666666;swimlaneFillColor=none;labelBackgroundColor=none;" vertex="1" parent="229">
                    <mxGeometry x="243" width="230" height="40" as="geometry">
                        <mxRectangle width="230" height="40" as="alternateBounds"/>
                    </mxGeometry>
                </mxCell>
                <mxCell id="236" style="shape=partialRectangle;html=1;whiteSpace=wrap;connectable=1;fillColor=none;top=0;left=0;bottom=0;right=0;overflow=hidden;movable=1;resizable=1;rotatable=1;deletable=1;editable=1;fontColor=#333333;strokeColor=#666666;swimlaneFillColor=none;labelBackgroundColor=none;" vertex="1" parent="229">
                    <mxGeometry x="473" width="230" height="40" as="geometry">
                        <mxRectangle width="230" height="40" as="alternateBounds"/>
                    </mxGeometry>
                </mxCell>
                <mxCell id="8" value="" style="shape=tableRow;horizontal=0;startSize=0;swimlaneHead=0;swimlaneBody=0;top=0;left=0;bottom=0;right=0;collapsible=0;dropTarget=0;fillColor=none;points=[[0,0.5],[1,0.5]];portConstraint=eastwest;movable=1;resizable=1;rotatable=1;deletable=1;editable=1;connectable=1;" vertex="1" parent="3">
                    <mxGeometry y="80" width="703" height="40" as="geometry"/>
                </mxCell>
                <mxCell id="9" value="off" style="shape=partialRectangle;html=1;whiteSpace=wrap;connectable=1;fillColor=none;top=0;left=0;bottom=0;right=0;overflow=hidden;movable=1;resizable=1;rotatable=1;deletable=1;editable=1;" vertex="1" parent="8">
                    <mxGeometry width="60" height="40" as="geometry">
                        <mxRectangle width="60" height="40" as="alternateBounds"/>
                    </mxGeometry>
                </mxCell>
                <mxCell id="10" value="off" style="shape=partialRectangle;html=1;whiteSpace=wrap;connectable=1;fillColor=none;top=0;left=0;bottom=0;right=0;overflow=hidden;movable=1;resizable=1;rotatable=1;deletable=1;editable=1;" vertex="1" parent="8">
                    <mxGeometry x="60" width="60" height="40" as="geometry">
                        <mxRectangle width="60" height="40" as="alternateBounds"/>
                    </mxGeometry>
                </mxCell>
                <mxCell id="11" value="off" style="shape=partialRectangle;html=1;whiteSpace=wrap;connectable=1;fillColor=none;top=0;left=0;bottom=0;right=0;overflow=hidden;movable=1;resizable=1;rotatable=1;deletable=1;editable=1;" vertex="1" parent="8">
                    <mxGeometry x="120" width="60" height="40" as="geometry">
                        <mxRectangle width="60" height="40" as="alternateBounds"/>
                    </mxGeometry>
                </mxCell>
                <mxCell id="189" value="off" style="shape=partialRectangle;html=1;whiteSpace=wrap;connectable=1;fillColor=none;top=0;left=0;bottom=0;right=0;overflow=hidden;movable=1;resizable=1;rotatable=1;deletable=1;editable=1;" vertex="1" parent="8">
                    <mxGeometry x="180" width="63" height="40" as="geometry">
                        <mxRectangle width="63" height="40" as="alternateBounds"/>
                    </mxGeometry>
                </mxCell>
                <mxCell id="207" value="No connection on USB-C" style="shape=partialRectangle;html=1;whiteSpace=wrap;connectable=1;fillColor=none;top=0;left=0;bottom=0;right=0;overflow=hidden;movable=1;resizable=1;rotatable=1;deletable=1;editable=1;align=left;" vertex="1" parent="8">
                    <mxGeometry x="243" width="230" height="40" as="geometry">
                        <mxRectangle width="230" height="40" as="alternateBounds"/>
                    </mxGeometry>
                </mxCell>
                <mxCell id="237" style="shape=partialRectangle;html=1;whiteSpace=wrap;connectable=1;fillColor=none;top=0;left=0;bottom=0;right=0;overflow=hidden;movable=1;resizable=1;rotatable=1;deletable=1;editable=1;align=left;" vertex="1" parent="8">
                    <mxGeometry x="473" width="230" height="40" as="geometry">
                        <mxRectangle width="230" height="40" as="alternateBounds"/>
                    </mxGeometry>
                </mxCell>
                <mxCell id="12" value="" style="shape=tableRow;horizontal=0;startSize=0;swimlaneHead=0;swimlaneBody=0;top=0;left=0;bottom=0;right=0;collapsible=0;dropTarget=0;fillColor=none;points=[[0,0.5],[1,0.5]];portConstraint=eastwest;movable=1;resizable=1;rotatable=1;deletable=1;editable=1;connectable=1;" vertex="1" parent="3">
                    <mxGeometry y="120" width="703" height="40" as="geometry"/>
                </mxCell>
                <mxCell id="13" value="off" style="shape=partialRectangle;html=1;whiteSpace=wrap;connectable=1;fillColor=none;top=0;left=0;bottom=0;right=0;overflow=hidden;movable=1;resizable=1;rotatable=1;deletable=1;editable=1;" vertex="1" parent="12">
                    <mxGeometry width="60" height="40" as="geometry">
                        <mxRectangle width="60" height="40" as="alternateBounds"/>
                    </mxGeometry>
                </mxCell>
                <mxCell id="14" value="off" style="shape=partialRectangle;html=1;whiteSpace=wrap;connectable=1;fillColor=none;top=0;left=0;bottom=0;right=0;overflow=hidden;movable=1;resizable=1;rotatable=1;deletable=1;editable=1;" vertex="1" parent="12">
                    <mxGeometry x="60" width="60" height="40" as="geometry">
                        <mxRectangle width="60" height="40" as="alternateBounds"/>
                    </mxGeometry>
                </mxCell>
                <mxCell id="15" value="off" style="shape=partialRectangle;html=1;whiteSpace=wrap;connectable=1;fillColor=none;top=0;left=0;bottom=0;right=0;overflow=hidden;pointerEvents=1;movable=1;resizable=1;rotatable=1;deletable=1;editable=1;" vertex="1" parent="12">
                    <mxGeometry x="120" width="60" height="40" as="geometry">
                        <mxRectangle width="60" height="40" as="alternateBounds"/>
                    </mxGeometry>
                </mxCell>
                <mxCell id="190" value="ON" style="shape=partialRectangle;html=1;whiteSpace=wrap;connectable=1;fillColor=none;top=0;left=0;bottom=0;right=0;overflow=hidden;pointerEvents=1;movable=1;resizable=1;rotatable=1;deletable=1;editable=1;" vertex="1" parent="12">
                    <mxGeometry x="180" width="63" height="40" as="geometry">
                        <mxRectangle width="63" height="40" as="alternateBounds"/>
                    </mxGeometry>
                </mxCell>
                <mxCell id="208" value="No connection on USB-C" style="shape=partialRectangle;html=1;whiteSpace=wrap;connectable=1;fillColor=none;top=0;left=0;bottom=0;right=0;overflow=hidden;pointerEvents=1;movable=1;resizable=1;rotatable=1;deletable=1;editable=1;align=left;" vertex="1" parent="12">
                    <mxGeometry x="243" width="230" height="40" as="geometry">
                        <mxRectangle width="230" height="40" as="alternateBounds"/>
                    </mxGeometry>
                </mxCell>
                <mxCell id="238" style="shape=partialRectangle;html=1;whiteSpace=wrap;connectable=1;fillColor=none;top=0;left=0;bottom=0;right=0;overflow=hidden;pointerEvents=1;movable=1;resizable=1;rotatable=1;deletable=1;editable=1;align=left;" vertex="1" parent="12">
                    <mxGeometry x="473" width="230" height="40" as="geometry">
                        <mxRectangle width="230" height="40" as="alternateBounds"/>
                    </mxGeometry>
                </mxCell>
                <mxCell id="16" value="" style="shape=tableRow;horizontal=0;startSize=0;swimlaneHead=0;swimlaneBody=0;top=0;left=0;bottom=0;right=0;collapsible=0;dropTarget=0;fillColor=none;points=[[0,0.5],[1,0.5]];portConstraint=eastwest;movable=1;resizable=1;rotatable=1;deletable=1;editable=1;connectable=1;" vertex="1" parent="3">
                    <mxGeometry y="160" width="703" height="40" as="geometry"/>
                </mxCell>
                <mxCell id="17" value="off" style="shape=partialRectangle;html=1;whiteSpace=wrap;connectable=1;fillColor=none;top=0;left=0;bottom=0;right=0;overflow=hidden;movable=1;resizable=1;rotatable=1;deletable=1;editable=1;" vertex="1" parent="16">
                    <mxGeometry width="60" height="40" as="geometry">
                        <mxRectangle width="60" height="40" as="alternateBounds"/>
                    </mxGeometry>
                </mxCell>
                <mxCell id="18" value="&#10;&lt;span style=&quot;color: rgb(0, 0, 0); font-family: Helvetica; font-size: 12px; font-style: normal; font-variant-ligatures: normal; font-variant-caps: normal; font-weight: 400; letter-spacing: normal; orphans: 2; text-align: center; text-indent: 0px; text-transform: none; widows: 2; word-spacing: 0px; -webkit-text-stroke-width: 0px; background-color: rgb(251, 251, 251); text-decoration-thickness: initial; text-decoration-style: initial; text-decoration-color: initial; float: none; display: inline !important;&quot;&gt;off&lt;/span&gt;&#10;&#10;" style="shape=partialRectangle;html=1;whiteSpace=wrap;connectable=1;fillColor=none;top=0;left=0;bottom=0;right=0;overflow=hidden;movable=1;resizable=1;rotatable=1;deletable=1;editable=1;" vertex="1" parent="16">
                    <mxGeometry x="60" width="60" height="40" as="geometry">
                        <mxRectangle width="60" height="40" as="alternateBounds"/>
                    </mxGeometry>
                </mxCell>
                <mxCell id="19" value="ON" style="shape=partialRectangle;html=1;whiteSpace=wrap;connectable=1;fillColor=none;top=0;left=0;bottom=0;right=0;overflow=hidden;movable=1;resizable=1;rotatable=1;deletable=1;editable=1;" vertex="1" parent="16">
                    <mxGeometry x="120" width="60" height="40" as="geometry">
                        <mxRectangle width="60" height="40" as="alternateBounds"/>
                    </mxGeometry>
                </mxCell>
                <mxCell id="191" value="&#10;&lt;span style=&quot;color: rgb(0, 0, 0); font-family: Helvetica; font-size: 12px; font-style: normal; font-variant-ligatures: normal; font-variant-caps: normal; font-weight: 400; letter-spacing: normal; orphans: 2; text-align: center; text-indent: 0px; text-transform: none; widows: 2; word-spacing: 0px; -webkit-text-stroke-width: 0px; background-color: rgb(251, 251, 251); text-decoration-thickness: initial; text-decoration-style: initial; text-decoration-color: initial; float: none; display: inline !important;&quot;&gt;off&lt;/span&gt;&#10;&#10;" style="shape=partialRectangle;html=1;whiteSpace=wrap;connectable=1;fillColor=none;top=0;left=0;bottom=0;right=0;overflow=hidden;movable=1;resizable=1;rotatable=1;deletable=1;editable=1;" vertex="1" parent="16">
                    <mxGeometry x="180" width="63" height="40" as="geometry">
                        <mxRectangle width="63" height="40" as="alternateBounds"/>
                    </mxGeometry>
                </mxCell>
                <mxCell id="209" value="Able to connect and burn software but ss serial timeout&amp;nbsp;&lt;span style=&quot;color: rgba(0, 0, 0, 0); font-family: monospace; font-size: 0px;&quot;&gt;%3CmxGraphModel%3E%3Croot%3E%3CmxCell%20id%3D%220%22%2F%3E%3CmxCell%20id%3D%221%22%20parent%3D%220%22%2F%3E%3CmxCell%20id%3D%222%22%20value%3D%22%22%20style%3D%22shape%3Dimage%3BverticalLabelPosition%3Dbottom%3BlabelBackgroundColor%3Ddefault%3BverticalAlign%3Dtop%3Baspect%3Dfixed%3BimageAspect%3D0%3Bimage%3Ddata%3Aimage%2Fpng%2CiVBORw0KGgoAAAANSUhEUgAAAhwAAAAVCAYAAAANbjedAAAAAXNSR0IArs4c6QAAAARnQU1BAACxjwv8YQUAAAAJcEhZcwAADsMAAA7DAcdvqGQAABYQSURBVHhe7ZwLbJXVlsf%2FAq3oUWxBKkjF8rCIFLEVOTxagaJQUXCQMIhYcJjJDSaGGdObSbgx3hHNZXIj1wz3JkPueJ3xgXJ9YBRRUClC66OIVLGIVKCI1EeVh2AVqeCc3%2B63y%2Bbz9PS0tMZ7s3%2FJx%2Bn5Hvux9tprrb32dzijf%2F%2F%2BP8rj8Xg8Ho%2BnA%2BkUfHo8Ho%2FH4%2FF0GD7g8Hg8Ho%2FH0%2BH4gMPj8Xg8Hk%2BH4wMOj8fj8Xg8HU67BxwpoxbovpmZwTePx%2BPxeDyetgYcWTerZG6OUoKvHUJKjub9%2BiZl0sLuU3T3b4oUabwSa3WWbr5vgaKtaUAkXyV%2F%2Fr1uvij47hAZUKT5%2F75QC39dohI%2B75ii7HODi8rUTYuX676pGcH3EAOK9Yfld6soLfjukFF0t%2F53cawPwfdfKpMnTw7%2Baj2dOnXStGnTgm8%2FDyNHjlT37t2Db%2FG56aabgr88Ho%2FH80ugTT%2BLzZ5borzyJVqxKzjhQIbjt31X6q6%2F7gvOtI2UEfO1oOdKLVld1xhwzG%2FQkt%2BtUT0XCTgWTVXNPUtV0WBub5G0iSW6fXCs3P2rtOix6uBsjO6FKvm3LJX%2B4SFVHmo8Fbl8nhZO2KP7HyjVIQKO3yzQyJT39eC9j6r6ROM9jaQo9%2FaFmjVQKr13kdYEzxt6FalkTq7Sz9qhZfesVCJp4BxXrlwZfGtk3Lhx2rp1qw4cOKDs7Gz169dPx44dU5cuXfTFF1%2BYa3Dbbbdp3759%2BvHHH8017n%2F77bfNNZfzzz9fw4cP1%2Ffff68zzjhDP%2Fzwg8rLy3XixCkdajUEHDfeeKOeffbZ4ExizjzzTOXn55v2UndKSorefPNNffPNN8Ed7UM8mWZmZurcc8%2FV9u3bgzONnI78p06dqvp6o5VGFvRr%2Ffr1On78uDkHOTk5pq8ffPBBcKaRKVOmmHsZGwKoLVu26IorrjB1HTlyxJRFmW%2B88UZTHRbuv%2BGGG%2FTpp5%2Ba77Trq6%2B%2B0ubNm813t09uGwEdQOZuG%2BNBvy%2B88EIjt1WrVunrr78OrjSCLIuLi7Vs2bJT9Ag969GjhxoaGnT22WfrtddeaxrfwYMHq3fv3ub%2BL7%2F8Utu2bTPnLejmvHnzmvoF69atM7JHb%2Bg35cLevXvN8y3JLGbjTF%2FoN%2Fr37rvv6vPPPzfXLIn00i3fwvm33nrLBNv2PM%2BmpqaausOyCpOon83JLz09XdFo1PSD8eZZ%2Bk%2Ff%2BvbtG5TSWDbj9vDDDxtZXH311eaT8wcPHjR6BhdffLFGjx6tQ4caDRf9wCZQ9tixY01%2FeIZ2lJWVme8ZGRmmfUePHjV95byV8wUXXGB0Hb2yOgZZWVm67LLLzDP057333tMnn3xirlmQ8eHDh7V79%2B7gTCOdO3fWqFGjzPjQFtpGuVa%2BZ511lsaMGWPGjOvUTZtc3abuSy65RM8995z5jj5wAOO6Z88e0zfazLPu3Gmp%2Fvnz5%2BvJJ580dsLCgogywzoWZsSIETrnnHOM3J544ong7KkwbgUFBeaTuql306ZNwdWfgi255ZZbtHTp0uDMSZKpLxKJmPrQQ8YX%2FQqP1enQOabE%2FxH8nRwpubqxUFq7enuj80%2FLVfGCO%2FQPY6MxRcxWepd0Zf64VaXbDnNRubfeqV9NK9DoMYUq6H9UVe%2FVqu%2FcuzXjjDe0%2BfPASHXKVvHdM9T5jc1qPBXR6GlX6cvVpaqJOe75xeM0qH8%2F9et%2FkTp%2F3qBhc29W%2FsC%2B6p81UBkndqgm%2B079dtQ%2BlVZZj5%2Bi6B3%2FqUlHX1PlFxSYoWtnDlPNQ2vV6fqxUrmtJ%2BaEphYrp%2FJ%2FtPKjk5FLwxexgCS3UN2qNqv2h24aPKqnamou0LCzKrS59qRhVdo4zR65X1Xf9FbDlg3aeTQ4H6uvaP5kHVpZptTLI9q%2BYbuQRnNghMNOkEmKY0PJUZQXX3zRKDETcsCAAWaCYSCYMFyrqanRrl27TFko5XfffReU1Mh1112nNWvWmHu4lwnJvQQrpwPtu%2FTSS%2FXhhx8GZxKDI8fgoMj0B6NZWFio6monCGwH4sm0W7duxnDgmF1OR%2F6DBg3Syy%2B%2FbM5zYBRw0K6xwchj2F0Zde3a1RjB999%2FX2lpacZwfvbZZ%2BrVq5epB6fAONXV1amoqMjIB6No4X4MAgEL9e7cubOpXRhut09uGymTe3Bc6EIi9u%2Ffb9qCk2GcMMguyIXztIV7gSCEutE16kLWGGzahxM877zzjMGmXAKOMBhEynv11VfNMxzWeeA41q5da2TBeft8SzLDgK5evdrcw%2FVrr732J%2BOdSC%2Fd8u0423lDX9ENK9va2lpTVkv63Fw%2FE8mPchlv%2FqY%2BdIpP5GDbxUF7CTwJUoYNG2acId8pDx3BmXCtT58%2B%2Bvjjj80ChTIJ4ODyyy83%2FScw45mePXuaeYNeIdcXXnjB1EO5yPajjz4y16%2B66ioTNCEr165MnDjROHvKQuf4jpxdaDP6xVxxoXwcXmVlpamTcidNmtQ0ttdff70JknbsiPmBWPkspIYOHdrUF0DXCXaYzwRP1GFlhQxoM32wz7hzp6X6Bw4caMqw34H5TxCHjBOBrtBmAsawPlpyc3ONLWEsqJ%2B5TLnffvttcMdJCI6uueYaEwDGKy%2BZ%2Bnj%2B9ddfN%2FJkrAg8qReb0R60ekslMiKq9K2lqmv8puit0xV5ebEW%2FW6xljywUnU9%2BijVXIsJftoCTe%2B8SkvuWazFsevPHJ%2Bif74mTdXl1coYlXdyS2Zwvvp9Uq4q6%2FO7Fyh6vEIVxA971mjZg2Xat6dUy%2F7rIZV%2FXKVVf3xEmz6r1qo%2FLdWKTYdUvynWniEFyra96ZqnaK%2F3VW4LzCpU9LtYeQeqVL4rUwXD7eZMivr0kmr2nLp6VCyUKv3vZaqwAUQXqW5dhSJXT4iFUCfJnBBV%2FcYyuYkNyCgq1pDtj2rV3iTTLwnA4YVB%2BeMpM%2FdixOwK0IUI2YWJg2EAInpgol155ZXGsGGUMQwWomIyGSgkETyr6zA40QkTJpjnMUwXXfTT%2FatwOzAEdlXe3PP8PWTIEBM0YfxYsfFJf1mV8gzOgefiyet0aI38AUcSNgaMB%2BcIeCwEaeGMRzyoh8lPcALTp083n%2FHAoLS01QSMPcaJ1UxbQS6suFltYcAs9JXsgJUbdeCogPsIhhk%2F9IgVNiAz9M3%2BHc7mWCgXh9ISYZk9%2F%2Fzz5hOYH%2BHACRLpZWsg0KedLdFcPxPJjyDEtp3xo81hR0BwCDbgJfPhBpYEFq7c47UB50YgYrH3Md4EQDYAJOCwOoTTJejEQTMXyVhYaDMBCfCJbJOFFbu1U8CzOEBsA%2B1iXrmZJ3TbBr%2FAfMD5E9iTfWktieoHgjcCUWxiR0CQ5AZP6AJ2Mh5kegjmXZ3ANjJuycL4uBk79AgZtBetDDjSFB2eqoo3AxebkqNoxg6t2WqV9pC2vFOtY%2FzZKUv5IxpUvrKqMROiBlWv36LI0Byl1MSCi%2FSo8ozcUpQzKlM15VWxOxrJHDtEB9%2FcEjyXBPVbVFY7SPmDGyd6Sm5UGR%2BWNW1%2F5BTmqe6tSlNedfkOZRZEm94HSYlJII5%2FPpVOsRDqYJlKD%2BeqyPrQWN8nDtqn0s2xh10p9ipScU61%2FvrS6WUOLEx0jCfpd6JdJhlGzab0cGI4Wo6ZM2eayeZOQMuGDRuM42a1FDZKLpRHCveVV14x5RCtA4bkpZdeMiuyqqoqk%2FINg%2FMnzczzrERJvYYhZcl5jBKGD6Np25HoeSYR9burYpwHBoYVSmlpqek7mYn2pCX5Aw4U%2BXMP9bNaCsMWDEGThZRuSxkGCyt2K%2B9nnnnGfIZBjmQAkEcyIEeMMY4C5%2B8erDZbwqaicT4YYeQC%2FE0gdeutt5rVJ%2FpmU%2Buk06lz48aNZsxYiZLdIUBA34AVPsEtwS4Bpk19AxkdVlzo8fjx45ucWDxcmQG6RnkzZsww9YdJpJfA2Lsyas6Ik8WxuoEzdp%2FhIKiH5vqZSH7AcwRnc%2BbMMYGvdf4WFgzulioZN%2FcenD%2FjAJRF4Is8OcJ9Qqdnz55tnkGeOKBwAG6dG2XihNlOYi4iP6vvzGdsE3Ugf7I0yUDb4wWYBBDoDYfdDnJxV%2B9kawg2GEvGpjW0VL%2BFgADdjDdvCHLCOpBIb8OwiLAyJhBFxvHmOHYHu8Q4uTDPwlmjRDBuLq6%2BtAetCzgyCpRLpsD6s67pihz7UodODbID0pUW6akR%2F1KikjuDY1aOUusblHpin8qrIoqOiLn9mOPOz6jW%2Bp3BYwQqA%2BpUvrU12YEGVW3crf5jeJGVctNUtSGISrvmKv%2FSfaqoDMKXmjJtSc9XYfAOaEOs7S0uSDrzT4Mq19Wo36TGl2UjIwqV%2Ft5aE9SkduE6ZKho1hBte2yV9sWVSdvA4ZHGJOWel5dnUnqscICIlwnNsWLFCqOcpE3DoIjsw2PMMKhkK0hvh3GNLA6ce1B0VhJE84CDiBfU4LwwkEwqImuUN7zaw6CyUsMwYZDJlNggIdHzbpRvoU0YQJwQwQpOsD0nhyWR%2FAEHhvyRb0VFhWlPGJ7l3QXAsCNbdyXSFpCbNWLIy75z0howaASR7hEvEA1DcGO3iDDoGHYgYCXt%2B%2Fjjj5ttDORBQAaMFfcCzov2kpJ2wTmSnmYLCD2hHusIMfSkezlPSp6gI1lYsROwPvXUU3GfS6SXgHN3ZeQacRvwEzigG3aPnWDVfYbDOsPm%2BplIfsC8Izh75JFHzHaJ67yYqzideBnOeDCPyWZQP%2FpLIOMGFJxbvny5cbw4OvpMwGjnGA7WBnU8R99scEO5jC3nkffTTz9t6uHdCHTVraejwH4gTxsA4qjtAqq9IWDFdrl2AVichXXAZqniQXsJejncYBt5EZxia%2BzWjYWMB4FsWzJyPzetCjgyC7J18K0tTZkIHf1G9alpOiduKQd1qI5tjyVa8kBw3L9Id%2F25wmQa6sorlXJlVBm5UaVXlTY56JTBBerzycnsRLI0bC%2FVjt4Fyuueq7xzq1QevOdCYJB3doYKFyzUQvNLlFnK7poZW7GjeA2qjdnWflnh1HKaCu%2BYr%2Fzw6V2lqkwrVDQtVt4oqWLjqdGkLi3UiB6pGjIrCLD4tUuffBXfOU%2BFfYJ7kgTFxXCwCkGhbHoLhSOlh7GJB07ANZSA07ZGm8nHCgijFc8xhmHSciTjHDGG7sRiNR42fqzqwK7kcNK8CwDJPO%2BCwWNSIhP2cZN9jyQZ2ir%2FRNsaBE0YPFb21vEmA9tHbprYQobByorxjBeUNQdlEpzQHhyNe7SU4cAh8zz6Q7BDf9i%2BwCiiewRo1vHg6G1KFmdoU%2FDAPeiWC3vMOGJA5mwB2PawMrYrTgLoRMGllRkrTwJZC04WBxp2eIn0siVswE9Ag0NFhkBfw7K1q%2F7m%2BplIfgTUFq7zngX9tLBlFc6uocOuEyRAsVt%2B2AHrjOk3AR0ypQ3uuNBOAg7aSYCEXAiw0HO7ouZ5Mo4W7rUOn0WR3bphjnNwviUYa8YqjM1s0PZ4iyYrY3SSuWuDcuSIriZLS%2FW7MB5kosgEuxCIh3WguS0RQFZkiDiwMxbaT4Aezw4QrKLPBHLch07wGc5YJYPVO4urL%2B1B8gFHp2yN71d78r0IaKhS1eEcjc%2B2q9iIcoZmNb7DcWKPyrelq3Cs83PSlDSl2Z%2BbHihTxYmoiq%2BOqLLcOu4U5YzJULXNTlhik6ah69lN2yAxVdCxExFF7MsiEKtvfVUsUCguUGRrefCrkDQV5Ker9P67tPj3i5uORfeu1MHh4807H%2FvWl0uTZirXeTkjMmSK8lOqVfWTPZ06lb1%2BTAVzi5VzoPRkpsfy4Qotuot3WYIA60%2BrVF1brkcfeEiltcE9cWBf1H3LnACBlYOdmKRzXbgeL9UHGK2wUhIs4BxcI8tECitXcxCRYzytEcKwuI7DgkNx9%2FviTSxeLHMNk2vYknneBYOH0cW4gd2bbi3tKX%2B2FmwmKAyrcowDZSabiUDOpL3jbdO0FRwwMsMJsOojWHGPljIcGFEcjxscspLDUaF7bsCCA7OyIkByt5VYybv740AgZ%2FfHge0%2FKyv3vSF0o7kxcGXGPaw8re5b52t1xpJIL1sDTtDWhXzDsrUvSzbXz0Tyw1m684654mZaeI49fxeCUDfjSdbBvp%2FBipmAzEJwzRwk%2BHLnEuUyR4A5YQMsyraBBPPQBp1APegWAZ7r%2BLjO3OJ8MoTnJg6QRQYvctIW5pvdzgN029aHDhAAWh0lIGT8W7Olkaj%2BMMwbAjz3foKEsA4QnLUGMlwEqM39WoR3SHhx2faT7VI%2BW7OVYsHWowfAWJGVtWPfHiT9K5WUoTeqsNN6vfCB%2B3uLo6rZWa%2Fhxb%2FSlPyoRkezdbzuSCww2B4LNg7rcHWVToy6TXOKxqlgTIEKhvfVid1VqjnMarlB%2BzvlaUbWVj3yak2spBiR0frH6NdatW5n43fLsViHh0zXP03MVY%2FDW1X12X4dOTOq2bPHafA5ddqyY78o8fD%2Bbioq7qNND76onfxIo9dk3TJ0l5avDpX33ceqz56u6Pdlqty9S1trMzV57s26dtRo085o77166v%2FWqtb4jW4aPG6wjpRViB%2BoNHx6WP1mjNRnj63QNhNwpGpgwejYcsH9lUpA50xFC7q1%2BCsVJiZ7rxgGjDYrFVLH9oUoonhewsIIMJFxeDZ9xhvYTGBWP0wElIU0rGtQ%2BZtyeLGJycB9GDtW60wQ%2B1a2XS1ZBaNcAhNWMRhSVjUoIPdhCFkJopRMbLIL9IM66AN9wRCwleBCBgAHQHttX2kvBqi55%2Bkzxs1mO5ADbcTI0X%2FbJ9qJQeAZ901zC46e6%2BEJdDryx2myN0x%2F7Bgg13hBB44Dh8vKxX0XhRUTzo52Y9wpE8NJedTJ%2BzfWSPHSKP3ifpyU%2B3Kfi9t%2Ft41WRygz7HSbg2eQNcaI8WaFy5i5YNwYu3feece0i34iS%2BRFuplnuYd20DZkjYPlPRbGmYAYueBweZfC6gBjwIofCJwJDBhvnBvbH8glkczoI7rFLzrQecaWLQ%2FrKC2J9DJcPgdOGb2hL%2BHMGu2mPKuv8Wiun%2Bhbc%2FJDP9g6tP1n7N35xfsC4V9%2FoGcEudTBwQraBq%2FInxU55dE%2FnuUcjhN9Z9w5cNJsKQF95xqfPEdmEb2mr7QRGXKeuWZfYGQc7HnkxXZL2BkiY%2ByIO5d4DtnSL%2Fpr%2B8D8IjAC7AJji6xoK8EGc5f6kSOZIxfaih7YoJp%2Bo4Pu4sudO4xxovrde4Fxx5ZQZrJBVbgMF%2FSA4JR5Z8eD%2BUJgaW1BGFcnyXqQjbH2A8L1MTbIhfaiT7x8yhxCNmRi2xK4NEfS%2Fw9H9PYSpT%2BzRGtCuwjtSdrEBZpT%2Fxctff0nqYXk6F6kknnH9Jf7%2Bf8zPB2FTVPyXsPfEmwf4Gybm9wej8fj6Tja9B9%2F%2FTJJUfashSrau6TtAYunWViBsFJitcMKn1WE3f%2F9W8FmONzsgsfj8Xh%2BHv4%2BAo5Iror%2FdboG1Zdq6R9LVdfKF049Ho%2FH4%2FF0LH9HGQ6Px%2BPxeDy%2FVNr2KrbH4%2FF4PB5PK%2FABh8fj8Xg8ng5G%2Bn9fhKIvAz5l4gAAAABJRU5ErkJggg%3D%3D%3Balign%3Dleft%3BwhiteSpace%3Dwrap%3B%22%20vertex%3D%221%22%20parent%3D%221%22%3E%3CmxGeometry%20x%3D%22307%22%20y%3D%221060%22%20width%3D%22540%22%20height%3D%2221%22%20as%3D%22geometry%22%2F%3E%3C%2FmxCell%3E%3C%2Froot%3E%3C%2FmxGraphModel%3E&lt;/span&gt;" style="shape=partialRectangle;html=1;whiteSpace=wrap;connectable=1;fillColor=none;top=0;left=0;bottom=0;right=0;overflow=hidden;movable=1;resizable=1;rotatable=1;deletable=1;editable=1;align=left;" vertex="1" parent="16">
                    <mxGeometry x="243" width="230" height="40" as="geometry">
                        <mxRectangle width="230" height="40" as="alternateBounds"/>
                    </mxGeometry>
                </mxCell>
                <mxCell id="239" style="shape=partialRectangle;html=1;whiteSpace=wrap;connectable=1;fillColor=none;top=0;left=0;bottom=0;right=0;overflow=hidden;movable=1;resizable=1;rotatable=1;deletable=1;editable=1;align=left;" vertex="1" parent="16">
                    <mxGeometry x="473" width="230" height="40" as="geometry">
                        <mxRectangle width="230" height="40" as="alternateBounds"/>
                    </mxGeometry>
                </mxCell>
                <mxCell id="20" value="" style="shape=tableRow;horizontal=0;startSize=0;swimlaneHead=0;swimlaneBody=0;top=0;left=0;bottom=0;right=0;collapsible=0;dropTarget=0;fillColor=none;points=[[0,0.5],[1,0.5]];portConstraint=eastwest;movable=1;resizable=1;rotatable=1;deletable=1;editable=1;connectable=1;" vertex="1" parent="3">
                    <mxGeometry y="200" width="703" height="40" as="geometry"/>
                </mxCell>
                <mxCell id="21" value="off" style="shape=partialRectangle;html=1;whiteSpace=wrap;connectable=1;fillColor=none;top=0;left=0;bottom=0;right=0;overflow=hidden;movable=1;resizable=1;rotatable=1;deletable=1;editable=1;" vertex="1" parent="20">
                    <mxGeometry width="60" height="40" as="geometry">
                        <mxRectangle width="60" height="40" as="alternateBounds"/>
                    </mxGeometry>
                </mxCell>
                <mxCell id="22" value="off" style="shape=partialRectangle;html=1;whiteSpace=wrap;connectable=1;fillColor=none;top=0;left=0;bottom=0;right=0;overflow=hidden;movable=1;resizable=1;rotatable=1;deletable=1;editable=1;" vertex="1" parent="20">
                    <mxGeometry x="60" width="60" height="40" as="geometry">
                        <mxRectangle width="60" height="40" as="alternateBounds"/>
                    </mxGeometry>
                </mxCell>
                <mxCell id="23" value="ON" style="shape=partialRectangle;html=1;whiteSpace=wrap;connectable=1;fillColor=none;top=0;left=0;bottom=0;right=0;overflow=hidden;movable=1;resizable=1;rotatable=1;deletable=1;editable=1;" vertex="1" parent="20">
                    <mxGeometry x="120" width="60" height="40" as="geometry">
                        <mxRectangle width="60" height="40" as="alternateBounds"/>
                    </mxGeometry>
                </mxCell>
                <mxCell id="192" value="ON" style="shape=partialRectangle;html=1;whiteSpace=wrap;connectable=1;fillColor=none;top=0;left=0;bottom=0;right=0;overflow=hidden;movable=1;resizable=1;rotatable=1;deletable=1;editable=1;" vertex="1" parent="20">
                    <mxGeometry x="180" width="63" height="40" as="geometry">
                        <mxRectangle width="63" height="40" as="alternateBounds"/>
                    </mxGeometry>
                </mxCell>
                <mxCell id="210" style="shape=partialRectangle;html=1;whiteSpace=wrap;connectable=1;fillColor=none;top=0;left=0;bottom=0;right=0;overflow=hidden;movable=1;resizable=1;rotatable=1;deletable=1;editable=1;align=left;" vertex="1" parent="20">
                    <mxGeometry x="243" width="230" height="40" as="geometry">
                        <mxRectangle width="230" height="40" as="alternateBounds"/>
                    </mxGeometry>
                </mxCell>
                <mxCell id="240" style="shape=partialRectangle;html=1;whiteSpace=wrap;connectable=1;fillColor=none;top=0;left=0;bottom=0;right=0;overflow=hidden;movable=1;resizable=1;rotatable=1;deletable=1;editable=1;align=left;" vertex="1" parent="20">
                    <mxGeometry x="473" width="230" height="40" as="geometry">
                        <mxRectangle width="230" height="40" as="alternateBounds"/>
                    </mxGeometry>
                </mxCell>
                <mxCell id="24" value="" style="shape=tableRow;horizontal=0;startSize=0;swimlaneHead=0;swimlaneBody=0;top=0;left=0;bottom=0;right=0;collapsible=0;dropTarget=0;fillColor=none;points=[[0,0.5],[1,0.5]];portConstraint=eastwest;movable=1;resizable=1;rotatable=1;deletable=1;editable=1;connectable=1;" vertex="1" parent="3">
                    <mxGeometry y="240" width="703" height="40" as="geometry"/>
                </mxCell>
                <mxCell id="25" value="off" style="shape=partialRectangle;html=1;whiteSpace=wrap;connectable=1;fillColor=none;top=0;left=0;bottom=0;right=0;overflow=hidden;movable=1;resizable=1;rotatable=1;deletable=1;editable=1;" vertex="1" parent="24">
                    <mxGeometry width="60" height="40" as="geometry">
                        <mxRectangle width="60" height="40" as="alternateBounds"/>
                    </mxGeometry>
                </mxCell>
                <mxCell id="26" value="ON" style="shape=partialRectangle;html=1;whiteSpace=wrap;connectable=1;fillColor=none;top=0;left=0;bottom=0;right=0;overflow=hidden;movable=1;resizable=1;rotatable=1;deletable=1;editable=1;" vertex="1" parent="24">
                    <mxGeometry x="60" width="60" height="40" as="geometry">
                        <mxRectangle width="60" height="40" as="alternateBounds"/>
                    </mxGeometry>
                </mxCell>
                <mxCell id="27" value="off" style="shape=partialRectangle;html=1;whiteSpace=wrap;connectable=1;fillColor=none;top=0;left=0;bottom=0;right=0;overflow=hidden;pointerEvents=1;movable=1;resizable=1;rotatable=1;deletable=1;editable=1;" vertex="1" parent="24">
                    <mxGeometry x="120" width="60" height="40" as="geometry">
                        <mxRectangle width="60" height="40" as="alternateBounds"/>
                    </mxGeometry>
                </mxCell>
                <mxCell id="193" value="&#10;&lt;span style=&quot;color: rgb(0, 0, 0); font-family: Helvetica; font-size: 12px; font-style: normal; font-variant-ligatures: normal; font-variant-caps: normal; font-weight: 400; letter-spacing: normal; orphans: 2; text-align: center; text-indent: 0px; text-transform: none; widows: 2; word-spacing: 0px; -webkit-text-stroke-width: 0px; background-color: rgb(251, 251, 251); text-decoration-thickness: initial; text-decoration-style: initial; text-decoration-color: initial; float: none; display: inline !important;&quot;&gt;off&lt;/span&gt;&#10;&#10;" style="shape=partialRectangle;html=1;whiteSpace=wrap;connectable=1;fillColor=none;top=0;left=0;bottom=0;right=0;overflow=hidden;pointerEvents=1;movable=1;resizable=1;rotatable=1;deletable=1;editable=1;" vertex="1" parent="24">
                    <mxGeometry x="180" width="63" height="40" as="geometry">
                        <mxRectangle width="63" height="40" as="alternateBounds"/>
                    </mxGeometry>
                </mxCell>
                <mxCell id="211" style="shape=partialRectangle;html=1;whiteSpace=wrap;connectable=1;fillColor=none;top=0;left=0;bottom=0;right=0;overflow=hidden;pointerEvents=1;movable=1;resizable=1;rotatable=1;deletable=1;editable=1;align=left;" vertex="1" parent="24">
                    <mxGeometry x="243" width="230" height="40" as="geometry">
                        <mxRectangle width="230" height="40" as="alternateBounds"/>
                    </mxGeometry>
                </mxCell>
                <mxCell id="241" style="shape=partialRectangle;html=1;whiteSpace=wrap;connectable=1;fillColor=none;top=0;left=0;bottom=0;right=0;overflow=hidden;pointerEvents=1;movable=1;resizable=1;rotatable=1;deletable=1;editable=1;align=left;" vertex="1" parent="24">
                    <mxGeometry x="473" width="230" height="40" as="geometry">
                        <mxRectangle width="230" height="40" as="alternateBounds"/>
                    </mxGeometry>
                </mxCell>
                <mxCell id="28" value="" style="shape=tableRow;horizontal=0;startSize=0;swimlaneHead=0;swimlaneBody=0;top=0;left=0;bottom=0;right=0;collapsible=0;dropTarget=0;fillColor=none;points=[[0,0.5],[1,0.5]];portConstraint=eastwest;movable=1;resizable=1;rotatable=1;deletable=1;editable=1;connectable=1;" vertex="1" parent="3">
                    <mxGeometry y="280" width="703" height="40" as="geometry"/>
                </mxCell>
                <mxCell id="29" value="off" style="shape=partialRectangle;html=1;whiteSpace=wrap;connectable=1;fillColor=none;top=0;left=0;bottom=0;right=0;overflow=hidden;movable=1;resizable=1;rotatable=1;deletable=1;editable=1;" vertex="1" parent="28">
                    <mxGeometry width="60" height="40" as="geometry">
                        <mxRectangle width="60" height="40" as="alternateBounds"/>
                    </mxGeometry>
                </mxCell>
                <mxCell id="30" value="ON" style="shape=partialRectangle;html=1;whiteSpace=wrap;connectable=1;fillColor=none;top=0;left=0;bottom=0;right=0;overflow=hidden;movable=1;resizable=1;rotatable=1;deletable=1;editable=1;" vertex="1" parent="28">
                    <mxGeometry x="60" width="60" height="40" as="geometry">
                        <mxRectangle width="60" height="40" as="alternateBounds"/>
                    </mxGeometry>
                </mxCell>
                <mxCell id="31" value="off" style="shape=partialRectangle;html=1;whiteSpace=wrap;connectable=1;fillColor=none;top=0;left=0;bottom=0;right=0;overflow=hidden;movable=1;resizable=1;rotatable=1;deletable=1;editable=1;" vertex="1" parent="28">
                    <mxGeometry x="120" width="60" height="40" as="geometry">
                        <mxRectangle width="60" height="40" as="alternateBounds"/>
                    </mxGeometry>
                </mxCell>
                <mxCell id="194" value="ON" style="shape=partialRectangle;html=1;whiteSpace=wrap;connectable=1;fillColor=none;top=0;left=0;bottom=0;right=0;overflow=hidden;movable=1;resizable=1;rotatable=1;deletable=1;editable=1;" vertex="1" parent="28">
                    <mxGeometry x="180" width="63" height="40" as="geometry">
                        <mxRectangle width="63" height="40" as="alternateBounds"/>
                    </mxGeometry>
                </mxCell>
                <mxCell id="212" style="shape=partialRectangle;html=1;whiteSpace=wrap;connectable=1;fillColor=none;top=0;left=0;bottom=0;right=0;overflow=hidden;movable=1;resizable=1;rotatable=1;deletable=1;editable=1;align=left;" vertex="1" parent="28">
                    <mxGeometry x="243" width="230" height="40" as="geometry">
                        <mxRectangle width="230" height="40" as="alternateBounds"/>
                    </mxGeometry>
                </mxCell>
                <mxCell id="242" style="shape=partialRectangle;html=1;whiteSpace=wrap;connectable=1;fillColor=none;top=0;left=0;bottom=0;right=0;overflow=hidden;movable=1;resizable=1;rotatable=1;deletable=1;editable=1;align=left;" vertex="1" parent="28">
                    <mxGeometry x="473" width="230" height="40" as="geometry">
                        <mxRectangle width="230" height="40" as="alternateBounds"/>
                    </mxGeometry>
                </mxCell>
                <mxCell id="32" value="" style="shape=tableRow;horizontal=0;startSize=0;swimlaneHead=0;swimlaneBody=0;top=0;left=0;bottom=0;right=0;collapsible=0;dropTarget=0;fillColor=none;points=[[0,0.5],[1,0.5]];portConstraint=eastwest;movable=1;resizable=1;rotatable=1;deletable=1;editable=1;connectable=1;" vertex="1" parent="3">
                    <mxGeometry y="320" width="703" height="40" as="geometry"/>
                </mxCell>
                <mxCell id="33" value="off" style="shape=partialRectangle;html=1;whiteSpace=wrap;connectable=1;fillColor=none;top=0;left=0;bottom=0;right=0;overflow=hidden;movable=1;resizable=1;rotatable=1;deletable=1;editable=1;" vertex="1" parent="32">
                    <mxGeometry width="60" height="40" as="geometry">
                        <mxRectangle width="60" height="40" as="alternateBounds"/>
                    </mxGeometry>
                </mxCell>
                <mxCell id="34" value="ON" style="shape=partialRectangle;html=1;whiteSpace=wrap;connectable=1;fillColor=none;top=0;left=0;bottom=0;right=0;overflow=hidden;movable=1;resizable=1;rotatable=1;deletable=1;editable=1;" vertex="1" parent="32">
                    <mxGeometry x="60" width="60" height="40" as="geometry">
                        <mxRectangle width="60" height="40" as="alternateBounds"/>
                    </mxGeometry>
                </mxCell>
                <mxCell id="35" value="ON" style="shape=partialRectangle;html=1;whiteSpace=wrap;connectable=1;fillColor=none;top=0;left=0;bottom=0;right=0;overflow=hidden;movable=1;resizable=1;rotatable=1;deletable=1;editable=1;" vertex="1" parent="32">
                    <mxGeometry x="120" width="60" height="40" as="geometry">
                        <mxRectangle width="60" height="40" as="alternateBounds"/>
                    </mxGeometry>
                </mxCell>
                <mxCell id="195" value="&#10;&lt;span style=&quot;color: rgb(0, 0, 0); font-family: Helvetica; font-size: 12px; font-style: normal; font-variant-ligatures: normal; font-variant-caps: normal; font-weight: 400; letter-spacing: normal; orphans: 2; text-align: center; text-indent: 0px; text-transform: none; widows: 2; word-spacing: 0px; -webkit-text-stroke-width: 0px; background-color: rgb(251, 251, 251); text-decoration-thickness: initial; text-decoration-style: initial; text-decoration-color: initial; float: none; display: inline !important;&quot;&gt;off&lt;/span&gt;&#10;&#10;" style="shape=partialRectangle;html=1;whiteSpace=wrap;connectable=1;fillColor=none;top=0;left=0;bottom=0;right=0;overflow=hidden;movable=1;resizable=1;rotatable=1;deletable=1;editable=1;" vertex="1" parent="32">
                    <mxGeometry x="180" width="63" height="40" as="geometry">
                        <mxRectangle width="63" height="40" as="alternateBounds"/>
                    </mxGeometry>
                </mxCell>
                <mxCell id="213" style="shape=partialRectangle;html=1;whiteSpace=wrap;connectable=1;fillColor=none;top=0;left=0;bottom=0;right=0;overflow=hidden;movable=1;resizable=1;rotatable=1;deletable=1;editable=1;align=left;" vertex="1" parent="32">
                    <mxGeometry x="243" width="230" height="40" as="geometry">
                        <mxRectangle width="230" height="40" as="alternateBounds"/>
                    </mxGeometry>
                </mxCell>
                <mxCell id="243" style="shape=partialRectangle;html=1;whiteSpace=wrap;connectable=1;fillColor=none;top=0;left=0;bottom=0;right=0;overflow=hidden;movable=1;resizable=1;rotatable=1;deletable=1;editable=1;align=left;" vertex="1" parent="32">
                    <mxGeometry x="473" width="230" height="40" as="geometry">
                        <mxRectangle width="230" height="40" as="alternateBounds"/>
                    </mxGeometry>
                </mxCell>
                <mxCell id="36" value="" style="shape=tableRow;horizontal=0;startSize=0;swimlaneHead=0;swimlaneBody=0;top=0;left=0;bottom=0;right=0;collapsible=0;dropTarget=0;fillColor=none;points=[[0,0.5],[1,0.5]];portConstraint=eastwest;movable=1;resizable=1;rotatable=1;deletable=1;editable=1;connectable=1;" vertex="1" parent="3">
                    <mxGeometry y="360" width="703" height="40" as="geometry"/>
                </mxCell>
                <mxCell id="37" value="off" style="shape=partialRectangle;html=1;whiteSpace=wrap;connectable=1;fillColor=none;top=0;left=0;bottom=0;right=0;overflow=hidden;movable=1;resizable=1;rotatable=1;deletable=1;editable=1;" vertex="1" parent="36">
                    <mxGeometry width="60" height="40" as="geometry">
                        <mxRectangle width="60" height="40" as="alternateBounds"/>
                    </mxGeometry>
                </mxCell>
                <mxCell id="38" value="ON" style="shape=partialRectangle;html=1;whiteSpace=wrap;connectable=1;fillColor=none;top=0;left=0;bottom=0;right=0;overflow=hidden;movable=1;resizable=1;rotatable=1;deletable=1;editable=1;" vertex="1" parent="36">
                    <mxGeometry x="60" width="60" height="40" as="geometry">
                        <mxRectangle width="60" height="40" as="alternateBounds"/>
                    </mxGeometry>
                </mxCell>
                <mxCell id="39" value="ON" style="shape=partialRectangle;html=1;whiteSpace=wrap;connectable=1;fillColor=none;top=0;left=0;bottom=0;right=0;overflow=hidden;pointerEvents=1;movable=1;resizable=1;rotatable=1;deletable=1;editable=1;" vertex="1" parent="36">
                    <mxGeometry x="120" width="60" height="40" as="geometry">
                        <mxRectangle width="60" height="40" as="alternateBounds"/>
                    </mxGeometry>
                </mxCell>
                <mxCell id="196" value="ON" style="shape=partialRectangle;html=1;whiteSpace=wrap;connectable=1;fillColor=none;top=0;left=0;bottom=0;right=0;overflow=hidden;pointerEvents=1;movable=1;resizable=1;rotatable=1;deletable=1;editable=1;" vertex="1" parent="36">
                    <mxGeometry x="180" width="63" height="40" as="geometry">
                        <mxRectangle width="63" height="40" as="alternateBounds"/>
                    </mxGeometry>
                </mxCell>
                <mxCell id="214" style="shape=partialRectangle;html=1;whiteSpace=wrap;connectable=1;fillColor=none;top=0;left=0;bottom=0;right=0;overflow=hidden;pointerEvents=1;movable=1;resizable=1;rotatable=1;deletable=1;editable=1;align=left;" vertex="1" parent="36">
                    <mxGeometry x="243" width="230" height="40" as="geometry">
                        <mxRectangle width="230" height="40" as="alternateBounds"/>
                    </mxGeometry>
                </mxCell>
                <mxCell id="244" style="shape=partialRectangle;html=1;whiteSpace=wrap;connectable=1;fillColor=none;top=0;left=0;bottom=0;right=0;overflow=hidden;pointerEvents=1;movable=1;resizable=1;rotatable=1;deletable=1;editable=1;align=left;" vertex="1" parent="36">
                    <mxGeometry x="473" width="230" height="40" as="geometry">
                        <mxRectangle width="230" height="40" as="alternateBounds"/>
                    </mxGeometry>
                </mxCell>
                <mxCell id="40" value="" style="shape=tableRow;horizontal=0;startSize=0;swimlaneHead=0;swimlaneBody=0;top=0;left=0;bottom=0;right=0;collapsible=0;dropTarget=0;fillColor=none;points=[[0,0.5],[1,0.5]];portConstraint=eastwest;movable=1;resizable=1;rotatable=1;deletable=1;editable=1;connectable=1;" vertex="1" parent="3">
                    <mxGeometry y="400" width="703" height="40" as="geometry"/>
                </mxCell>
                <mxCell id="41" value="ON" style="shape=partialRectangle;html=1;whiteSpace=wrap;connectable=1;fillColor=none;top=0;left=0;bottom=0;right=0;overflow=hidden;movable=1;resizable=1;rotatable=1;deletable=1;editable=1;" vertex="1" parent="40">
                    <mxGeometry width="60" height="40" as="geometry">
                        <mxRectangle width="60" height="40" as="alternateBounds"/>
                    </mxGeometry>
                </mxCell>
                <mxCell id="42" value="&#10;&lt;span style=&quot;color: rgb(0, 0, 0); font-family: Helvetica; font-size: 12px; font-style: normal; font-variant-ligatures: normal; font-variant-caps: normal; font-weight: 400; letter-spacing: normal; orphans: 2; text-align: center; text-indent: 0px; text-transform: none; widows: 2; word-spacing: 0px; -webkit-text-stroke-width: 0px; background-color: rgb(251, 251, 251); text-decoration-thickness: initial; text-decoration-style: initial; text-decoration-color: initial; float: none; display: inline !important;&quot;&gt;off&lt;/span&gt;&#10;&#10;" style="shape=partialRectangle;html=1;whiteSpace=wrap;connectable=1;fillColor=none;top=0;left=0;bottom=0;right=0;overflow=hidden;movable=1;resizable=1;rotatable=1;deletable=1;editable=1;" vertex="1" parent="40">
                    <mxGeometry x="60" width="60" height="40" as="geometry">
                        <mxRectangle width="60" height="40" as="alternateBounds"/>
                    </mxGeometry>
                </mxCell>
                <mxCell id="43" value="off" style="shape=partialRectangle;html=1;whiteSpace=wrap;connectable=1;fillColor=none;top=0;left=0;bottom=0;right=0;overflow=hidden;movable=1;resizable=1;rotatable=1;deletable=1;editable=1;" vertex="1" parent="40">
                    <mxGeometry x="120" width="60" height="40" as="geometry">
                        <mxRectangle width="60" height="40" as="alternateBounds"/>
                    </mxGeometry>
                </mxCell>
                <mxCell id="197" value="&#10;&lt;span style=&quot;color: rgb(0, 0, 0); font-family: Helvetica; font-size: 12px; font-style: normal; font-variant-ligatures: normal; font-variant-caps: normal; font-weight: 400; letter-spacing: normal; orphans: 2; text-align: center; text-indent: 0px; text-transform: none; widows: 2; word-spacing: 0px; -webkit-text-stroke-width: 0px; background-color: rgb(251, 251, 251); text-decoration-thickness: initial; text-decoration-style: initial; text-decoration-color: initial; float: none; display: inline !important;&quot;&gt;off&lt;/span&gt;&#10;&#10;" style="shape=partialRectangle;html=1;whiteSpace=wrap;connectable=1;fillColor=none;top=0;left=0;bottom=0;right=0;overflow=hidden;movable=1;resizable=1;rotatable=1;deletable=1;editable=1;" vertex="1" parent="40">
                    <mxGeometry x="180" width="63" height="40" as="geometry">
                        <mxRectangle width="63" height="40" as="alternateBounds"/>
                    </mxGeometry>
                </mxCell>
                <mxCell id="215" style="shape=partialRectangle;html=1;whiteSpace=wrap;connectable=1;fillColor=none;top=0;left=0;bottom=0;right=0;overflow=hidden;movable=1;resizable=1;rotatable=1;deletable=1;editable=1;align=left;" vertex="1" parent="40">
                    <mxGeometry x="243" width="230" height="40" as="geometry">
                        <mxRectangle width="230" height="40" as="alternateBounds"/>
                    </mxGeometry>
                </mxCell>
                <mxCell id="245" style="shape=partialRectangle;html=1;whiteSpace=wrap;connectable=1;fillColor=none;top=0;left=0;bottom=0;right=0;overflow=hidden;movable=1;resizable=1;rotatable=1;deletable=1;editable=1;align=left;" vertex="1" parent="40">
                    <mxGeometry x="473" width="230" height="40" as="geometry">
                        <mxRectangle width="230" height="40" as="alternateBounds"/>
                    </mxGeometry>
                </mxCell>
                <mxCell id="44" value="" style="shape=tableRow;horizontal=0;startSize=0;swimlaneHead=0;swimlaneBody=0;top=0;left=0;bottom=0;right=0;collapsible=0;dropTarget=0;fillColor=none;points=[[0,0.5],[1,0.5]];portConstraint=eastwest;movable=1;resizable=1;rotatable=1;deletable=1;editable=1;connectable=1;" vertex="1" parent="3">
                    <mxGeometry y="440" width="703" height="40" as="geometry"/>
                </mxCell>
                <mxCell id="45" value="ON" style="shape=partialRectangle;html=1;whiteSpace=wrap;connectable=1;fillColor=none;top=0;left=0;bottom=0;right=0;overflow=hidden;movable=1;resizable=1;rotatable=1;deletable=1;editable=1;" vertex="1" parent="44">
                    <mxGeometry width="60" height="40" as="geometry">
                        <mxRectangle width="60" height="40" as="alternateBounds"/>
                    </mxGeometry>
                </mxCell>
                <mxCell id="46" value="&#10;&lt;span style=&quot;color: rgb(0, 0, 0); font-family: Helvetica; font-size: 12px; font-style: normal; font-variant-ligatures: normal; font-variant-caps: normal; font-weight: 400; letter-spacing: normal; orphans: 2; text-align: center; text-indent: 0px; text-transform: none; widows: 2; word-spacing: 0px; -webkit-text-stroke-width: 0px; background-color: rgb(251, 251, 251); text-decoration-thickness: initial; text-decoration-style: initial; text-decoration-color: initial; float: none; display: inline !important;&quot;&gt;off&lt;/span&gt;&#10;&#10;" style="shape=partialRectangle;html=1;whiteSpace=wrap;connectable=1;fillColor=none;top=0;left=0;bottom=0;right=0;overflow=hidden;movable=1;resizable=1;rotatable=1;deletable=1;editable=1;" vertex="1" parent="44">
                    <mxGeometry x="60" width="60" height="40" as="geometry">
                        <mxRectangle width="60" height="40" as="alternateBounds"/>
                    </mxGeometry>
                </mxCell>
                <mxCell id="47" value="off" style="shape=partialRectangle;html=1;whiteSpace=wrap;connectable=1;fillColor=none;top=0;left=0;bottom=0;right=0;overflow=hidden;movable=1;resizable=1;rotatable=1;deletable=1;editable=1;" vertex="1" parent="44">
                    <mxGeometry x="120" width="60" height="40" as="geometry">
                        <mxRectangle width="60" height="40" as="alternateBounds"/>
                    </mxGeometry>
                </mxCell>
                <mxCell id="198" value="ON" style="shape=partialRectangle;html=1;whiteSpace=wrap;connectable=1;fillColor=none;top=0;left=0;bottom=0;right=0;overflow=hidden;movable=1;resizable=1;rotatable=1;deletable=1;editable=1;" vertex="1" parent="44">
                    <mxGeometry x="180" width="63" height="40" as="geometry">
                        <mxRectangle width="63" height="40" as="alternateBounds"/>
                    </mxGeometry>
                </mxCell>
                <mxCell id="216" style="shape=partialRectangle;html=1;whiteSpace=wrap;connectable=1;fillColor=none;top=0;left=0;bottom=0;right=0;overflow=hidden;movable=1;resizable=1;rotatable=1;deletable=1;editable=1;align=left;" vertex="1" parent="44">
                    <mxGeometry x="243" width="230" height="40" as="geometry">
                        <mxRectangle width="230" height="40" as="alternateBounds"/>
                    </mxGeometry>
                </mxCell>
                <mxCell id="246" style="shape=partialRectangle;html=1;whiteSpace=wrap;connectable=1;fillColor=none;top=0;left=0;bottom=0;right=0;overflow=hidden;movable=1;resizable=1;rotatable=1;deletable=1;editable=1;align=left;" vertex="1" parent="44">
                    <mxGeometry x="473" width="230" height="40" as="geometry">
                        <mxRectangle width="230" height="40" as="alternateBounds"/>
                    </mxGeometry>
                </mxCell>
                <mxCell id="48" value="" style="shape=tableRow;horizontal=0;startSize=0;swimlaneHead=0;swimlaneBody=0;top=0;left=0;bottom=0;right=0;collapsible=0;dropTarget=0;fillColor=none;points=[[0,0.5],[1,0.5]];portConstraint=eastwest;movable=1;resizable=1;rotatable=1;deletable=1;editable=1;connectable=1;" vertex="1" parent="3">
                    <mxGeometry y="480" width="703" height="40" as="geometry"/>
                </mxCell>
                <mxCell id="49" value="ON" style="shape=partialRectangle;html=1;whiteSpace=wrap;connectable=1;fillColor=none;top=0;left=0;bottom=0;right=0;overflow=hidden;movable=1;resizable=1;rotatable=1;deletable=1;editable=1;" vertex="1" parent="48">
                    <mxGeometry width="60" height="40" as="geometry">
                        <mxRectangle width="60" height="40" as="alternateBounds"/>
                    </mxGeometry>
                </mxCell>
                <mxCell id="50" value="&#10;&lt;span style=&quot;color: rgb(0, 0, 0); font-family: Helvetica; font-size: 12px; font-style: normal; font-variant-ligatures: normal; font-variant-caps: normal; font-weight: 400; letter-spacing: normal; orphans: 2; text-align: center; text-indent: 0px; text-transform: none; widows: 2; word-spacing: 0px; -webkit-text-stroke-width: 0px; background-color: rgb(251, 251, 251); text-decoration-thickness: initial; text-decoration-style: initial; text-decoration-color: initial; float: none; display: inline !important;&quot;&gt;off&lt;/span&gt;&#10;&#10;" style="shape=partialRectangle;html=1;whiteSpace=wrap;connectable=1;fillColor=none;top=0;left=0;bottom=0;right=0;overflow=hidden;movable=1;resizable=1;rotatable=1;deletable=1;editable=1;" vertex="1" parent="48">
                    <mxGeometry x="60" width="60" height="40" as="geometry">
                        <mxRectangle width="60" height="40" as="alternateBounds"/>
                    </mxGeometry>
                </mxCell>
                <mxCell id="51" value="ON" style="shape=partialRectangle;html=1;whiteSpace=wrap;connectable=1;fillColor=none;top=0;left=0;bottom=0;right=0;overflow=hidden;pointerEvents=1;movable=1;resizable=1;rotatable=1;deletable=1;editable=1;" vertex="1" parent="48">
                    <mxGeometry x="120" width="60" height="40" as="geometry">
                        <mxRectangle width="60" height="40" as="alternateBounds"/>
                    </mxGeometry>
                </mxCell>
                <mxCell id="199" value="off" style="shape=partialRectangle;html=1;whiteSpace=wrap;connectable=1;fillColor=none;top=0;left=0;bottom=0;right=0;overflow=hidden;pointerEvents=1;movable=1;resizable=1;rotatable=1;deletable=1;editable=1;" vertex="1" parent="48">
                    <mxGeometry x="180" width="63" height="40" as="geometry">
                        <mxRectangle width="63" height="40" as="alternateBounds"/>
                    </mxGeometry>
                </mxCell>
                <mxCell id="217" style="shape=partialRectangle;html=1;whiteSpace=wrap;connectable=1;fillColor=none;top=0;left=0;bottom=0;right=0;overflow=hidden;pointerEvents=1;movable=1;resizable=1;rotatable=1;deletable=1;editable=1;align=left;" vertex="1" parent="48">
                    <mxGeometry x="243" width="230" height="40" as="geometry">
                        <mxRectangle width="230" height="40" as="alternateBounds"/>
                    </mxGeometry>
                </mxCell>
                <mxCell id="247" style="shape=partialRectangle;html=1;whiteSpace=wrap;connectable=1;fillColor=none;top=0;left=0;bottom=0;right=0;overflow=hidden;pointerEvents=1;movable=1;resizable=1;rotatable=1;deletable=1;editable=1;align=left;" vertex="1" parent="48">
                    <mxGeometry x="473" width="230" height="40" as="geometry">
                        <mxRectangle width="230" height="40" as="alternateBounds"/>
                    </mxGeometry>
                </mxCell>
                <mxCell id="52" value="" style="shape=tableRow;horizontal=0;startSize=0;swimlaneHead=0;swimlaneBody=0;top=0;left=0;bottom=0;right=0;collapsible=0;dropTarget=0;fillColor=none;points=[[0,0.5],[1,0.5]];portConstraint=eastwest;movable=1;resizable=1;rotatable=1;deletable=1;editable=1;connectable=1;align=left;" vertex="1" parent="3">
                    <mxGeometry y="520" width="703" height="40" as="geometry"/>
                </mxCell>
                <mxCell id="53" value="ON" style="shape=partialRectangle;html=1;whiteSpace=wrap;connectable=1;fillColor=none;top=0;left=0;bottom=0;right=0;overflow=hidden;movable=1;resizable=1;rotatable=1;deletable=1;editable=1;" vertex="1" parent="52">
                    <mxGeometry width="60" height="40" as="geometry">
                        <mxRectangle width="60" height="40" as="alternateBounds"/>
                    </mxGeometry>
                </mxCell>
                <mxCell id="54" value="&#10;&lt;span style=&quot;color: rgb(0, 0, 0); font-family: Helvetica; font-size: 12px; font-style: normal; font-variant-ligatures: normal; font-variant-caps: normal; font-weight: 400; letter-spacing: normal; orphans: 2; text-align: center; text-indent: 0px; text-transform: none; widows: 2; word-spacing: 0px; -webkit-text-stroke-width: 0px; background-color: rgb(251, 251, 251); text-decoration-thickness: initial; text-decoration-style: initial; text-decoration-color: initial; float: none; display: inline !important;&quot;&gt;off&lt;/span&gt;&#10;&#10;" style="shape=partialRectangle;html=1;whiteSpace=wrap;connectable=1;fillColor=none;top=0;left=0;bottom=0;right=0;overflow=hidden;movable=1;resizable=1;rotatable=1;deletable=1;editable=1;" vertex="1" parent="52">
                    <mxGeometry x="60" width="60" height="40" as="geometry">
                        <mxRectangle width="60" height="40" as="alternateBounds"/>
                    </mxGeometry>
                </mxCell>
                <mxCell id="55" value="ON" style="shape=partialRectangle;html=1;whiteSpace=wrap;connectable=1;fillColor=none;top=0;left=0;bottom=0;right=0;overflow=hidden;movable=1;resizable=1;rotatable=1;deletable=1;editable=1;" vertex="1" parent="52">
                    <mxGeometry x="120" width="60" height="40" as="geometry">
                        <mxRectangle width="60" height="40" as="alternateBounds"/>
                    </mxGeometry>
                </mxCell>
                <mxCell id="200" value="ON" style="shape=partialRectangle;html=1;whiteSpace=wrap;connectable=1;fillColor=none;top=0;left=0;bottom=0;right=0;overflow=hidden;movable=1;resizable=1;rotatable=1;deletable=1;editable=1;" vertex="1" parent="52">
                    <mxGeometry x="180" width="63" height="40" as="geometry">
                        <mxRectangle width="63" height="40" as="alternateBounds"/>
                    </mxGeometry>
                </mxCell>
                <mxCell id="218" style="shape=partialRectangle;html=1;whiteSpace=wrap;connectable=1;fillColor=none;top=0;left=0;bottom=0;right=0;overflow=hidden;movable=1;resizable=1;rotatable=1;deletable=1;editable=1;align=left;" vertex="1" parent="52">
                    <mxGeometry x="243" width="230" height="40" as="geometry">
                        <mxRectangle width="230" height="40" as="alternateBounds"/>
                    </mxGeometry>
                </mxCell>
                <mxCell id="248" style="shape=partialRectangle;html=1;whiteSpace=wrap;connectable=1;fillColor=none;top=0;left=0;bottom=0;right=0;overflow=hidden;movable=1;resizable=1;rotatable=1;deletable=1;editable=1;align=left;" vertex="1" parent="52">
                    <mxGeometry x="473" width="230" height="40" as="geometry">
                        <mxRectangle width="230" height="40" as="alternateBounds"/>
                    </mxGeometry>
                </mxCell>
                <mxCell id="56" value="" style="shape=tableRow;horizontal=0;startSize=0;swimlaneHead=0;swimlaneBody=0;top=0;left=0;bottom=0;right=0;collapsible=0;dropTarget=0;fillColor=none;points=[[0,0.5],[1,0.5]];portConstraint=eastwest;movable=1;resizable=1;rotatable=1;deletable=1;editable=1;connectable=1;" vertex="1" parent="3">
                    <mxGeometry y="560" width="703" height="40" as="geometry"/>
                </mxCell>
                <mxCell id="57" value="ON" style="shape=partialRectangle;html=1;whiteSpace=wrap;connectable=1;fillColor=none;top=0;left=0;bottom=0;right=0;overflow=hidden;movable=1;resizable=1;rotatable=1;deletable=1;editable=1;" vertex="1" parent="56">
                    <mxGeometry width="60" height="40" as="geometry">
                        <mxRectangle width="60" height="40" as="alternateBounds"/>
                    </mxGeometry>
                </mxCell>
                <mxCell id="58" value="ON" style="shape=partialRectangle;html=1;whiteSpace=wrap;connectable=1;fillColor=none;top=0;left=0;bottom=0;right=0;overflow=hidden;movable=1;resizable=1;rotatable=1;deletable=1;editable=1;" vertex="1" parent="56">
                    <mxGeometry x="60" width="60" height="40" as="geometry">
                        <mxRectangle width="60" height="40" as="alternateBounds"/>
                    </mxGeometry>
                </mxCell>
                <mxCell id="59" value="off" style="shape=partialRectangle;html=1;whiteSpace=wrap;connectable=1;fillColor=none;top=0;left=0;bottom=0;right=0;overflow=hidden;movable=1;resizable=1;rotatable=1;deletable=1;editable=1;" vertex="1" parent="56">
                    <mxGeometry x="120" width="60" height="40" as="geometry">
                        <mxRectangle width="60" height="40" as="alternateBounds"/>
                    </mxGeometry>
                </mxCell>
                <mxCell id="201" value="off" style="shape=partialRectangle;html=1;whiteSpace=wrap;connectable=1;fillColor=none;top=0;left=0;bottom=0;right=0;overflow=hidden;movable=1;resizable=1;rotatable=1;deletable=1;editable=1;" vertex="1" parent="56">
                    <mxGeometry x="180" width="63" height="40" as="geometry">
                        <mxRectangle width="63" height="40" as="alternateBounds"/>
                    </mxGeometry>
                </mxCell>
                <mxCell id="219" style="shape=partialRectangle;html=1;whiteSpace=wrap;connectable=1;fillColor=none;top=0;left=0;bottom=0;right=0;overflow=hidden;movable=1;resizable=1;rotatable=1;deletable=1;editable=1;align=left;" vertex="1" parent="56">
                    <mxGeometry x="243" width="230" height="40" as="geometry">
                        <mxRectangle width="230" height="40" as="alternateBounds"/>
                    </mxGeometry>
                </mxCell>
                <mxCell id="249" style="shape=partialRectangle;html=1;whiteSpace=wrap;connectable=1;fillColor=none;top=0;left=0;bottom=0;right=0;overflow=hidden;movable=1;resizable=1;rotatable=1;deletable=1;editable=1;align=left;" vertex="1" parent="56">
                    <mxGeometry x="473" width="230" height="40" as="geometry">
                        <mxRectangle width="230" height="40" as="alternateBounds"/>
                    </mxGeometry>
                </mxCell>
                <mxCell id="60" value="" style="shape=tableRow;horizontal=0;startSize=0;swimlaneHead=0;swimlaneBody=0;top=0;left=0;bottom=0;right=0;collapsible=0;dropTarget=0;fillColor=none;points=[[0,0.5],[1,0.5]];portConstraint=eastwest;movable=1;resizable=1;rotatable=1;deletable=1;editable=1;connectable=1;" vertex="1" parent="3">
                    <mxGeometry y="600" width="703" height="40" as="geometry"/>
                </mxCell>
                <mxCell id="61" value="ON" style="shape=partialRectangle;html=1;whiteSpace=wrap;connectable=1;fillColor=none;top=0;left=0;bottom=0;right=0;overflow=hidden;movable=1;resizable=1;rotatable=1;deletable=1;editable=1;" vertex="1" parent="60">
                    <mxGeometry width="60" height="40" as="geometry">
                        <mxRectangle width="60" height="40" as="alternateBounds"/>
                    </mxGeometry>
                </mxCell>
                <mxCell id="62" value="ON" style="shape=partialRectangle;html=1;whiteSpace=wrap;connectable=1;fillColor=none;top=0;left=0;bottom=0;right=0;overflow=hidden;movable=1;resizable=1;rotatable=1;deletable=1;editable=1;" vertex="1" parent="60">
                    <mxGeometry x="60" width="60" height="40" as="geometry">
                        <mxRectangle width="60" height="40" as="alternateBounds"/>
                    </mxGeometry>
                </mxCell>
                <mxCell id="63" value="off" style="shape=partialRectangle;html=1;whiteSpace=wrap;connectable=1;fillColor=none;top=0;left=0;bottom=0;right=0;overflow=hidden;pointerEvents=1;movable=1;resizable=1;rotatable=1;deletable=1;editable=1;" vertex="1" parent="60">
                    <mxGeometry x="120" width="60" height="40" as="geometry">
                        <mxRectangle width="60" height="40" as="alternateBounds"/>
                    </mxGeometry>
                </mxCell>
                <mxCell id="202" value="ON" style="shape=partialRectangle;html=1;whiteSpace=wrap;connectable=1;fillColor=none;top=0;left=0;bottom=0;right=0;overflow=hidden;pointerEvents=1;movable=1;resizable=1;rotatable=1;deletable=1;editable=1;" vertex="1" parent="60">
                    <mxGeometry x="180" width="63" height="40" as="geometry">
                        <mxRectangle width="63" height="40" as="alternateBounds"/>
                    </mxGeometry>
                </mxCell>
                <mxCell id="220" style="shape=partialRectangle;html=1;whiteSpace=wrap;connectable=1;fillColor=none;top=0;left=0;bottom=0;right=0;overflow=hidden;pointerEvents=1;movable=1;resizable=1;rotatable=1;deletable=1;editable=1;align=left;" vertex="1" parent="60">
                    <mxGeometry x="243" width="230" height="40" as="geometry">
                        <mxRectangle width="230" height="40" as="alternateBounds"/>
                    </mxGeometry>
                </mxCell>
                <mxCell id="250" style="shape=partialRectangle;html=1;whiteSpace=wrap;connectable=1;fillColor=none;top=0;left=0;bottom=0;right=0;overflow=hidden;pointerEvents=1;movable=1;resizable=1;rotatable=1;deletable=1;editable=1;align=left;" vertex="1" parent="60">
                    <mxGeometry x="473" width="230" height="40" as="geometry">
                        <mxRectangle width="230" height="40" as="alternateBounds"/>
                    </mxGeometry>
                </mxCell>
                <mxCell id="64" value="" style="shape=tableRow;horizontal=0;startSize=0;swimlaneHead=0;swimlaneBody=0;top=0;left=0;bottom=0;right=0;collapsible=0;dropTarget=0;fillColor=none;points=[[0,0.5],[1,0.5]];portConstraint=eastwest;movable=1;resizable=1;rotatable=1;deletable=1;editable=1;connectable=1;" vertex="1" parent="3">
                    <mxGeometry y="640" width="703" height="40" as="geometry"/>
                </mxCell>
                <mxCell id="65" value="ON" style="shape=partialRectangle;html=1;whiteSpace=wrap;connectable=1;fillColor=none;top=0;left=0;bottom=0;right=0;overflow=hidden;movable=1;resizable=1;rotatable=1;deletable=1;editable=1;" vertex="1" parent="64">
                    <mxGeometry width="60" height="40" as="geometry">
                        <mxRectangle width="60" height="40" as="alternateBounds"/>
                    </mxGeometry>
                </mxCell>
                <mxCell id="66" value="ON" style="shape=partialRectangle;html=1;whiteSpace=wrap;connectable=1;fillColor=none;top=0;left=0;bottom=0;right=0;overflow=hidden;movable=1;resizable=1;rotatable=1;deletable=1;editable=1;" vertex="1" parent="64">
                    <mxGeometry x="60" width="60" height="40" as="geometry">
                        <mxRectangle width="60" height="40" as="alternateBounds"/>
                    </mxGeometry>
                </mxCell>
                <mxCell id="67" value="ON" style="shape=partialRectangle;html=1;whiteSpace=wrap;connectable=1;fillColor=none;top=0;left=0;bottom=0;right=0;overflow=hidden;movable=1;resizable=1;rotatable=1;deletable=1;editable=1;" vertex="1" parent="64">
                    <mxGeometry x="120" width="60" height="40" as="geometry">
                        <mxRectangle width="60" height="40" as="alternateBounds"/>
                    </mxGeometry>
                </mxCell>
                <mxCell id="203" value="off" style="shape=partialRectangle;html=1;whiteSpace=wrap;connectable=1;fillColor=none;top=0;left=0;bottom=0;right=0;overflow=hidden;movable=1;resizable=1;rotatable=1;deletable=1;editable=1;" vertex="1" parent="64">
                    <mxGeometry x="180" width="63" height="40" as="geometry">
                        <mxRectangle width="63" height="40" as="alternateBounds"/>
                    </mxGeometry>
                </mxCell>
                <mxCell id="221" style="shape=partialRectangle;html=1;whiteSpace=wrap;connectable=1;fillColor=none;top=0;left=0;bottom=0;right=0;overflow=hidden;movable=1;resizable=1;rotatable=1;deletable=1;editable=1;align=left;" vertex="1" parent="64">
                    <mxGeometry x="243" width="230" height="40" as="geometry">
                        <mxRectangle width="230" height="40" as="alternateBounds"/>
                    </mxGeometry>
                </mxCell>
                <mxCell id="251" style="shape=partialRectangle;html=1;whiteSpace=wrap;connectable=1;fillColor=none;top=0;left=0;bottom=0;right=0;overflow=hidden;movable=1;resizable=1;rotatable=1;deletable=1;editable=1;align=left;" vertex="1" parent="64">
                    <mxGeometry x="473" width="230" height="40" as="geometry">
                        <mxRectangle width="230" height="40" as="alternateBounds"/>
                    </mxGeometry>
                </mxCell>
                <mxCell id="68" value="" style="shape=tableRow;horizontal=0;startSize=0;swimlaneHead=0;swimlaneBody=0;top=0;left=0;bottom=0;right=0;collapsible=0;dropTarget=0;fillColor=none;points=[[0,0.5],[1,0.5]];portConstraint=eastwest;movable=1;resizable=1;rotatable=1;deletable=1;editable=1;connectable=1;" vertex="1" parent="3">
                    <mxGeometry y="680" width="703" height="40" as="geometry"/>
                </mxCell>
                <mxCell id="69" value="ON" style="shape=partialRectangle;html=1;whiteSpace=wrap;connectable=1;fillColor=none;top=0;left=0;bottom=0;right=0;overflow=hidden;movable=1;resizable=1;rotatable=1;deletable=1;editable=1;" vertex="1" parent="68">
                    <mxGeometry width="60" height="40" as="geometry">
                        <mxRectangle width="60" height="40" as="alternateBounds"/>
                    </mxGeometry>
                </mxCell>
                <mxCell id="70" value="ON" style="shape=partialRectangle;html=1;whiteSpace=wrap;connectable=1;fillColor=none;top=0;left=0;bottom=0;right=0;overflow=hidden;movable=1;resizable=1;rotatable=1;deletable=1;editable=1;" vertex="1" parent="68">
                    <mxGeometry x="60" width="60" height="40" as="geometry">
                        <mxRectangle width="60" height="40" as="alternateBounds"/>
                    </mxGeometry>
                </mxCell>
                <mxCell id="71" value="ON" style="shape=partialRectangle;html=1;whiteSpace=wrap;connectable=1;fillColor=none;top=0;left=0;bottom=0;right=0;overflow=hidden;movable=1;resizable=1;rotatable=1;deletable=1;editable=1;" vertex="1" parent="68">
                    <mxGeometry x="120" width="60" height="40" as="geometry">
                        <mxRectangle width="60" height="40" as="alternateBounds"/>
                    </mxGeometry>
                </mxCell>
                <mxCell id="204" value="ON" style="shape=partialRectangle;html=1;whiteSpace=wrap;connectable=1;fillColor=none;top=0;left=0;bottom=0;right=0;overflow=hidden;movable=1;resizable=1;rotatable=1;deletable=1;editable=1;" vertex="1" parent="68">
                    <mxGeometry x="180" width="63" height="40" as="geometry">
                        <mxRectangle width="63" height="40" as="alternateBounds"/>
                    </mxGeometry>
                </mxCell>
                <mxCell id="222" style="shape=partialRectangle;html=1;whiteSpace=wrap;connectable=1;fillColor=none;top=0;left=0;bottom=0;right=0;overflow=hidden;movable=1;resizable=1;rotatable=1;deletable=1;editable=1;align=left;" vertex="1" parent="68">
                    <mxGeometry x="243" width="230" height="40" as="geometry">
                        <mxRectangle width="230" height="40" as="alternateBounds"/>
                    </mxGeometry>
                </mxCell>
                <mxCell id="252" style="shape=partialRectangle;html=1;whiteSpace=wrap;connectable=1;fillColor=none;top=0;left=0;bottom=0;right=0;overflow=hidden;movable=1;resizable=1;rotatable=1;deletable=1;editable=1;align=left;" vertex="1" parent="68">
                    <mxGeometry x="473" width="230" height="40" as="geometry">
                        <mxRectangle width="230" height="40" as="alternateBounds"/>
                    </mxGeometry>
                </mxCell>
                <mxCell id="226" value="off = logic 1&amp;nbsp;&lt;br&gt;ON = logiic 0" style="text;html=1;align=center;verticalAlign=middle;resizable=0;points=[];autosize=1;strokeColor=none;fillColor=none;" vertex="1" parent="1">
                    <mxGeometry x="217" y="865" width="90" height="40" as="geometry"/>
                </mxCell>
                <mxCell id="228" value="" style="shape=image;verticalLabelPosition=bottom;labelBackgroundColor=default;verticalAlign=top;aspect=fixed;imageAspect=0;image=data:image/png,iVBORw0KGgoAAAANSUhEUgAAAhwAAAAVCAYAAAANbjedAAAAAXNSR0IArs4c6QAAAARnQU1BAACxjwv8YQUAAAAJcEhZcwAADsMAAA7DAcdvqGQAABYQSURBVHhe7ZwLbJXVlsf/Aq3oUWxBKkjF8rCIFLEVOTxagaJQUXCQMIhYcJjJDSaGGdObSbgx3hHNZXIj1wz3JkPueJ3xgXJ9YBRRUClC66OIVLGIVKCI1EeVh2AVqeCc3+63y+bz9PS0tMZ7s3/Jx+n5Hvux9tprrb32dzijf//+P8rj8Xg8Ho+nA+kUfHo8Ho/H4/F0GD7g8Hg8Ho/H0+H4gMPj8Xg8Hk+H4wMOj8fj8Xg8HU67BxwpoxbovpmZwTePx+PxeDyetgYcWTerZG6OUoKvHUJKjub9+iZl0sLuU3T3b4oUabwSa3WWbr5vgaKtaUAkXyV//r1uvij47hAZUKT5/75QC39dohI+75ii7HODi8rUTYuX676pGcH3EAOK9Yfld6soLfjukFF0t/53cawPwfdfKpMnTw7+aj2dOnXStGnTgm8/DyNHjlT37t2Db/G56aabgr88Ho/H80ugTT+LzZ5borzyJVqxKzjhQIbjt31X6q6/7gvOtI2UEfO1oOdKLVld1xhwzG/Qkt+tUT0XCTgWTVXNPUtV0WBub5G0iSW6fXCs3P2rtOix6uBsjO6FKvm3LJX+4SFVHmo8Fbl8nhZO2KP7HyjVIQKO3yzQyJT39eC9j6r6ROM9jaQo9/aFmjVQKr13kdYEzxt6FalkTq7Sz9qhZfesVCJp4BxXrlwZfGtk3Lhx2rp1qw4cOKDs7Gz169dPx44dU5cuXfTFF1+Ya3Dbbbdp3759+vHHH8017n/77bfNNZfzzz9fw4cP1/fff68zzjhDP/zwg8rLy3XixCkdajUEHDfeeKOeffbZ4ExizjzzTOXn55v2UndKSorefPNNffPNN8Ed7UM8mWZmZurcc8/V9u3bgzONnI78p06dqvp6o5VGFvRr/fr1On78uDkHOTk5pq8ffPBBcKaRKVOmmHsZGwKoLVu26IorrjB1HTlyxJRFmW+88UZTHRbuv+GGG/Tpp5+a77Trq6++0ubNm813t09uGwEdQOZuG+NBvy+88EIjt1WrVunrr78OrjSCLIuLi7Vs2bJT9Ag969GjhxoaGnT22WfrtddeaxrfwYMHq3fv3ub+L7/8Utu2bTPnLejmvHnzmvoF69atM7JHb+g35cLevXvN8y3JLGbjTF/oN/r37rvv6vPPPzfXLIn00i3fwvm33nrLBNv2PM+mpqaausOyCpOon83JLz09XdFo1PSD8eZZ+k/f+vbtG5TSWDbj9vDDDxtZXH311eaT8wcPHjR6BhdffLFGjx6tQ4caDRf9wCZQ9tixY01/eIZ2lJWVme8ZGRmmfUePHjV95byV8wUXXGB0Hb2yOgZZWVm67LLLzDP057333tMnn3xirlmQ8eHDh7V79+7gTCOdO3fWqFGjzPjQFtpGuVa+Z511lsaMGWPGjOvUTZtc3abuSy65RM8995z5jj5wAOO6Z88e0zfazLPu3Gmp/vnz5+vJJ580dsLCgogywzoWZsSIETrnnHOM3J544ong7KkwbgUFBeaTuql306ZNwdWfgi255ZZbtHTp0uDMSZKpLxKJmPrQQ8YX/QqP1enQOabE/xH8nRwpubqxUFq7enuj80/LVfGCO/QPY6MxRcxWepd0Zf64VaXbDnNRubfeqV9NK9DoMYUq6H9UVe/Vqu/cuzXjjDe0+fPASHXKVvHdM9T5jc1qPBXR6GlX6cvVpaqJOe75xeM0qH8/9et/kTp/3qBhc29W/sC+6p81UBkndqgm+079dtQ+lVZZj5+i6B3/qUlHX1PlFxSYoWtnDlPNQ2vV6fqxUrmtJ+aEphYrp/J/tPKjk5FLwxexgCS3UN2qNqv2h24aPKqnamou0LCzKrS59qRhVdo4zR65X1Xf9FbDlg3aeTQ4H6uvaP5kHVpZptTLI9q+YbuQRnNghMNOkEmKY0PJUZQXX3zRKDETcsCAAWaCYSCYMFyrqanRrl27TFko5XfffReU1Mh1112nNWvWmHu4lwnJvQQrpwPtu/TSS/Xhhx8GZxKDI8fgoMj0B6NZWFio6monCGwH4sm0W7duxnDgmF1OR/6DBg3Syy+/bM5zYBRw0K6xwchj2F0Zde3a1RjB999/X2lpacZwfvbZZ+rVq5epB6fAONXV1amoqMjIB6No4X4MAgEL9e7cubOpXRhut09uGymTe3Bc6EIi9u/fb9qCk2GcMMguyIXztIV7gSCEutE16kLWGGzahxM877zzjMGmXAKOMBhEynv11VfNMxzWeeA41q5da2TBeft8SzLDgK5evdrcw/Vrr732J+OdSC/d8u0423lDX9ENK9va2lpTVkv63Fw/E8mPchlv/qY+dIpP5GDbxUF7CTwJUoYNG2acId8pDx3BmXCtT58++vjjj80ChTIJ4ODyyy83/Scw45mePXuaeYNeIdcXXnjB1EO5yPajjz4y16+66ioTNCEr165MnDjROHvKQuf4jpxdaDP6xVxxoXwcXmVlpamTcidNmtQ0ttdff70JknbsiPmBWPkspIYOHdrUF0DXCXaYzwRP1GFlhQxoM32wz7hzp6X6Bw4caMqw34H5TxCHjBOBrtBmAsawPlpyc3ONLWEsqJ+5TLnffvttcMdJCI6uueYaEwDGKy+Z+nj+9ddfN/JkrAg8qReb0R60ekslMiKq9K2lqmv8puit0xV5ebEW/W6xljywUnU9+ijVXIsJftoCTe+8SkvuWazFsevPHJ+if74mTdXl1coYlXdyS2Zwvvp9Uq4q6/O7Fyh6vEIVxA971mjZg2Xat6dUy/7rIZV/XKVVf3xEmz6r1qo/LdWKTYdUvynWniEFyra96ZqnaK/3VW4LzCpU9LtYeQeqVL4rUwXD7eZMivr0kmr2nLp6VCyUKv3vZaqwAUQXqW5dhSJXT4iFUCfJnBBV/cYyuYkNyCgq1pDtj2rV3iTTLwnA4YVB+eMpM/dixOwK0IUI2YWJg2EAInpgol155ZXGsGGUMQwWomIyGSgkETyr6zA40QkTJpjnMUwXXfTT/atwOzAEdlXe3PP8PWTIEBM0YfxYsfFJf1mV8gzOgefiyet0aI38AUcSNgaMB+cIeCwEaeGMRzyoh8lPcALTp083n/HAoLS01QSMPcaJ1UxbQS6suFltYcAs9JXsgJUbdeCogPsIhhk/9IgVNiAz9M3+Hc7mWCgXh9ISYZk9//zz5hOYH+HACRLpZWsg0KedLdFcPxPJjyDEtp3xo81hR0BwCDbgJfPhBpYEFq7c47UB50YgYrH3Md4EQDYAJOCwOoTTJejEQTMXyVhYaDMBCfCJbJOFFbu1U8CzOEBsA+1iXrmZJ3TbBr/AfMD5E9iTfWktieoHgjcCUWxiR0CQ5AZP6AJ2Mh5kegjmXZ3ANjJuycL4uBk79AgZtBetDDjSFB2eqoo3AxebkqNoxg6t2WqV9pC2vFOtY/zZKUv5IxpUvrKqMROiBlWv36LI0Byl1MSCi/So8ozcUpQzKlM15VWxOxrJHDtEB9/cEjyXBPVbVFY7SPmDGyd6Sm5UGR+WNW1/5BTmqe6tSlNedfkOZRZEm94HSYlJII5/PpVOsRDqYJlKD+eqyPrQWN8nDtqn0s2xh10p9ipScU61/vrS6WUOLEx0jCfpd6JdJhlGzab0cGI4Wo6ZM2eayeZOQMuGDRuM42a1FDZKLpRHCveVV14x5RCtA4bkpZdeMiuyqqoqk/INg/MnzczzrERJvYYhZcl5jBKGD6Np25HoeSYR9burYpwHBoYVSmlpqek7mYn2pCX5Aw4U+XMP9bNaCsMWDEGThZRuSxkGCyt2K+9nnnnGfIZBjmQAkEcyIEeMMY4C5+8erDZbwqaicT4YYeQC/E0gdeutt5rVJ/pmU+uk06lz48aNZsxYiZLdIUBA34AVPsEtwS4Bpk19AxkdVlzo8fjx45ucWDxcmQG6RnkzZsww9YdJpJfA2Lsyas6Ik8WxuoEzdp/hIKiH5vqZSH7AcwRnc+bMMYGvdf4WFgzulioZN/cenD/jAJRF4Is8OcJ9Qqdnz55tnkGeOKBwAG6dG2XihNlOYi4iP6vvzGdsE3Ugf7I0yUDb4wWYBBDoDYfdDnJxV+9kawg2GEvGpjW0VL+FgADdjDdvCHLCOpBIb8OwiLAyJhBFxvHmOHYHu8Q4uTDPwlmjRDBuLq6+tAetCzgyCpRLpsD6s67pihz7UodODbID0pUW6akR/1KikjuDY1aOUusblHpin8qrIoqOiLn9mOPOz6jW+p3BYwQqA+pUvrU12YEGVW3crf5jeJGVctNUtSGISrvmKv/SfaqoDMKXmjJtSc9XYfAOaEOs7S0uSDrzT4Mq19Wo36TGl2UjIwqV/t5aE9SkduE6ZKho1hBte2yV9sWVSdvA4ZHGJOWel5dnUnqscICIlwnNsWLFCqOcpE3DoIjsw2PMMKhkK0hvh3GNLA6ce1B0VhJE84CDiBfU4LwwkEwqImuUN7zaw6CyUsMwYZDJlNggIdHzbpRvoU0YQJwQwQpOsD0nhyWR/AEHhvyRb0VFhWlPGJ7l3QXAsCNbdyXSFpCbNWLIy75z0howaASR7hEvEA1DcGO3iDDoGHYgYCXt+/jjj5ttDORBQAaMFfcCzov2kpJ2wTmSnmYLCD2hHusIMfSkezlPSp6gI1lYsROwPvXUU3GfS6SXgHN3ZeQacRvwEzigG3aPnWDVfYbDOsPm+plIfsC8Izh75JFHzHaJ67yYqzideBnOeDCPyWZQP/pLIOMGFJxbvny5cbw4OvpMwGjnGA7WBnU8R99scEO5jC3nkffTTz9t6uHdCHTVraejwH4gTxsA4qjtAqq9IWDFdrl2AVichXXAZqniQXsJejncYBt5EZxia+zWjYWMB4FsWzJyPzetCjgyC7J18K0tTZkIHf1G9alpOiduKQd1qI5tjyVa8kBw3L9Id/25wmQa6sorlXJlVBm5UaVXlTY56JTBBerzycnsRLI0bC/Vjt4Fyuueq7xzq1QevOdCYJB3doYKFyzUQvNLlFnK7poZW7GjeA2qjdnWflnh1HKaCu+Yr/zw6V2lqkwrVDQtVt4oqWLjqdGkLi3UiB6pGjIrCLD4tUuffBXfOU+FfYJ7kgTFxXCwCkGhbHoLhSOlh7GJB07ANZSA07ZGm8nHCgijFc8xhmHSciTjHDGG7sRiNR42fqzqwK7kcNK8CwDJPO+CwWNSIhP2cZN9jyQZ2ir/RNsaBE0YPFb21vEmA9tHbprYQobByorxjBeUNQdlEpzQHhyNe7SU4cAh8zz6Q7BDf9i+wCiiewRo1vHg6G1KFmdoU/DAPeiWC3vMOGJA5mwB2PawMrYrTgLoRMGllRkrTwJZC04WBxp2eIn0siVswE9Ag0NFhkBfw7K1q/7m+plIfgTUFq7zngX9tLBlFc6uocOuEyRAsVt+2AHrjOk3AR0ypQ3uuNBOAg7aSYCEXAiw0HO7ouZ5Mo4W7rUOn0WR3bphjnNwviUYa8YqjM1s0PZ4iyYrY3SSuWuDcuSIriZLS/W7MB5kosgEuxCIh3WguS0RQFZkiDiwMxbaT4Aezw4QrKLPBHLch07wGc5YJYPVO4urL+1B8gFHp2yN71d78r0IaKhS1eEcjc+2q9iIcoZmNb7DcWKPyrelq3Cs83PSlDSl2Z+bHihTxYmoiq+OqLLcOu4U5YzJULXNTlhik6ah69lN2yAxVdCxExFF7MsiEKtvfVUsUCguUGRrefCrkDQV5Ker9P67tPj3i5uORfeu1MHh4807H/vWl0uTZirXeTkjMmSK8lOqVfWTPZ06lb1+TAVzi5VzoPRkpsfy4Qotuot3WYIA60+rVF1brkcfeEiltcE9cWBf1H3LnACBlYOdmKRzXbgeL9UHGK2wUhIs4BxcI8tECitXcxCRYzytEcKwuI7DgkNx9/viTSxeLHMNk2vYknneBYOH0cW4gd2bbi3tKX+2FmwmKAyrcowDZSabiUDOpL3jbdO0FRwwMsMJsOojWHGPljIcGFEcjxscspLDUaF7bsCCA7OyIkByt5VYybv740AgZ/fHge0/Kyv3vSF0o7kxcGXGPaw8re5b52t1xpJIL1sDTtDWhXzDsrUvSzbXz0Tyw1m684654mZaeI49fxeCUDfjSdbBvp/BipmAzEJwzRwk+HLnEuUyR4A5YQMsyraBBPPQBp1APegWAZ7r+LjO3OJ8MoTnJg6QRQYvctIW5pvdzgN029aHDhAAWh0lIGT8W7Olkaj+MMwbAjz3foKEsA4QnLUGMlwEqM39WoR3SHhx2faT7VI+W7OVYsHWowfAWJGVtWPfHiT9K5WUoTeqsNN6vfCB+3uLo6rZWa/hxb/SlPyoRkezdbzuSCww2B4LNg7rcHWVToy6TXOKxqlgTIEKhvfVid1VqjnMarlB+zvlaUbWVj3yak2spBiR0frH6NdatW5n43fLsViHh0zXP03MVY/DW1X12X4dOTOq2bPHafA5ddqyY78o8fD+bioq7qNND76onfxIo9dk3TJ0l5avDpX33ceqz56u6Pdlqty9S1trMzV57s26dtRo085o77166v/Wqtb4jW4aPG6wjpRViB+oNHx6WP1mjNRnj63QNhNwpGpgwejYcsH9lUpA50xFC7q1+CsVJiZ7rxgGjDYrFVLH9oUoonhewsIIMJFxeDZ9xhvYTGBWP0wElIU0rGtQ+ZtyeLGJycB9GDtW60wQ+1a2XS1ZBaNcAhNWMRhSVjUoIPdhCFkJopRMbLIL9IM66AN9wRCwleBCBgAHQHttX2kvBqi55+kzxs1mO5ADbcTI0X/bJ9qJQeAZ901zC46e6+EJdDryx2myN0x/7Bgg13hBB44Dh8vKxX0XhRUTzo52Y9wpE8NJedTJ+zfWSPHSKP3ifpyU+3Kfi9t/t41WRygz7HSbg2eQNcaI8WaFy5i5YNwYu3feece0i34iS+RFuplnuYd20DZkjYPlPRbGmYAYueBweZfC6gBjwIofCJwJDBhvnBvbH8glkczoI7rFLzrQecaWLQ/rKC2J9DJcPgdOGb2hL+HMGu2mPKuv8Wiun+hbc/JDP9g6tP1n7N35xfsC4V9/oGcEudTBwQraBq/InxU55dE/nuUcjhN9Z9w5cNJsKQF95xqfPEdmEb2mr7QRGXKeuWZfYGQc7HnkxXZL2BkiY+yIO5d4DtnSL/pr+8D8IjAC7AJji6xoK8EGc5f6kSOZIxfaih7YoJp+o4Pu4sudO4xxovrde4Fxx5ZQZrJBVbgMF/SA4JR5Z8eD+UJgaW1BGFcnyXqQjbH2A8L1MTbIhfaiT7x8yhxCNmRi2xK4NEfS/w9H9PYSpT+zRGtCuwjtSdrEBZpT/xctff0nqYXk6F6kknnH9Jf7+f8zPB2FTVPyXsPfEmwf4Gybm9wej8fj6Tja9B9//TJJUfashSrau6TtAYunWViBsFJitcMKn1WE3f/9W8FmONzsgsfj8Xh+Hv4+Ao5Iror/dboG1Zdq6R9LVdfKF049Ho/H4/F0LH9HGQ6Px+PxeDy/VNr2KrbH4/F4PB5PK/ABh8fj8Xg8ng5G+n9fhKIvAz5l4gAAAABJRU5ErkJggg==;align=left;whiteSpace=wrap;" vertex="1" parent="1">
                    <mxGeometry x="720" y="1080" width="540" height="21" as="geometry"/>
                </mxCell>
            </root>
        </mxGraphModel>
    </diagram>
</mxfile>